<svg width="7009" height="1098" viewBox="0 0 7009 1098" fill="none" xmlns="http://www.w3.org/2000/svg">
<path d="M651.029 214.444C657.271 214.444 662.552 216.364 666.873 220.205C671.674 223.566 674.075 228.847 674.075 236.049C674.075 238.45 673.595 241.57 672.634 245.411L513.478 706.317C512.037 710.638 509.397 713.999 505.556 716.399C501.715 718.8 497.874 720 494.033 720C489.232 720 484.911 719.04 481.07 717.119C477.229 714.719 474.349 711.118 472.428 706.317L344.959 390.885L350.72 392.325L223.251 706.317C221.331 711.118 218.21 714.719 213.889 717.119C210.048 719.04 205.967 720 201.646 720C197.805 720 193.964 718.8 190.124 716.399C186.763 713.999 184.362 710.638 182.922 706.317L23.7655 245.411C22.3251 241.57 21.605 238.69 21.605 236.769C21.605 229.568 24.2456 224.046 29.5268 220.205C34.808 216.364 40.0892 214.444 45.3704 214.444C50.1715 214.444 54.4925 215.644 58.3334 218.045C62.1743 220.445 64.8149 223.806 66.2552 228.127L211.008 650.144L203.087 650.864L328.395 338.312C329.836 333.991 332.236 330.631 335.597 328.23C339.438 325.349 343.759 324.149 348.56 324.629C353.361 324.149 357.442 325.349 360.803 328.23C364.644 330.631 367.524 333.991 369.445 338.312L493.313 649.424L485.391 652.304L629.424 228.127C630.865 223.806 633.505 220.445 637.346 218.045C641.187 215.644 645.748 214.444 651.029 214.444ZM786.291 215.884C792.052 215.884 797.093 218.045 801.414 222.366C806.216 226.687 808.616 231.968 808.616 238.209V697.675C808.136 703.916 805.495 709.198 800.694 713.519C796.373 717.84 791.332 720 785.571 720C778.849 720 773.328 717.84 769.007 713.519C765.166 709.198 763.246 703.916 763.246 697.675V238.209C763.246 231.968 765.406 226.687 769.727 222.366C774.048 218.045 779.569 215.884 786.291 215.884ZM1124.05 215.884C1130.77 215.884 1136.05 218.045 1139.89 222.366C1144.21 226.687 1146.37 231.968 1146.37 238.209V697.675C1145.89 703.916 1143.49 709.198 1139.17 713.519C1135.33 717.84 1130.05 720 1123.33 720C1117.09 720 1111.81 717.84 1107.48 713.519C1103.16 709.198 1101 703.916 1101 697.675V238.209C1101 231.968 1103.16 226.687 1107.48 222.366C1112.29 218.045 1117.81 215.884 1124.05 215.884ZM782.69 441.296H1124.77L1124.05 483.066H779.809L782.69 441.296ZM1450.09 271.337L1275.09 706.317C1273.17 711.118 1270.53 714.719 1267.16 717.119C1263.8 719.52 1259.96 720.72 1255.64 720.72C1248.92 720.72 1243.88 719.04 1240.52 715.679C1237.16 711.838 1235.24 707.277 1234.76 701.996C1234.28 699.595 1234.52 696.715 1235.48 693.354L1425.6 228.127C1428 222.846 1430.88 219.245 1434.24 217.325C1438.08 214.924 1442.4 213.724 1447.21 213.724C1452.01 213.724 1456.09 215.164 1459.45 218.045C1463.29 220.445 1466.17 223.806 1468.09 228.127L1657.49 691.193C1658.45 694.074 1658.93 696.955 1658.93 699.835C1658.93 706.557 1656.77 711.838 1652.45 715.679C1648.13 719.04 1643.09 720.72 1637.33 720.72C1632.53 720.72 1628.21 719.52 1624.37 717.119C1621.01 714.239 1618.36 710.638 1616.44 706.317L1437.12 268.456L1450.09 271.337ZM1316.86 574.527L1334.86 532.037H1558.11L1566.75 574.527H1316.86ZM1861.77 720C1855.05 720 1849.53 717.84 1845.21 713.519C1841.37 709.198 1839.45 704.156 1839.45 698.395V239.65H1884.1V698.395C1884.1 704.156 1881.94 709.198 1877.62 713.519C1873.3 717.84 1868.01 720 1861.77 720ZM1690.37 256.934C1684.61 256.934 1679.57 255.013 1675.25 251.172C1670.93 247.332 1668.77 242.29 1668.77 236.049C1668.77 230.288 1670.93 225.487 1675.25 221.646C1679.57 217.805 1684.61 215.884 1690.37 215.884H2033.17C2038.93 215.884 2043.98 217.805 2048.3 221.646C2052.62 225.487 2054.78 230.528 2054.78 236.769C2054.78 243.011 2052.62 248.052 2048.3 251.893C2043.98 255.253 2038.93 256.934 2033.17 256.934H1690.37ZM2186.22 262.695C2186.22 275.658 2182.38 288.381 2174.7 300.864C2167.01 312.867 2157.65 322.949 2146.61 331.111C2136.05 338.793 2125.24 342.633 2114.2 342.633C2110.36 342.633 2106.76 341.433 2103.4 339.033C2100.04 336.632 2098.36 332.311 2098.36 326.07C2098.36 319.348 2100.52 315.507 2104.84 314.547C2109.16 313.587 2114.92 311.426 2122.12 308.066C2129.81 303.745 2135.81 298.703 2140.13 292.942C2144.45 287.181 2146.61 280.459 2146.61 272.777C2146.61 266.536 2144.69 261.735 2140.85 258.374C2137.49 255.013 2133.41 253.333 2128.61 253.333C2125.24 253.333 2121.88 254.053 2118.52 255.493C2115.16 256.454 2112.28 257.894 2109.88 259.814C2107 257.414 2104.6 254.773 2102.68 251.893C2101.24 248.532 2100.52 244.691 2100.52 240.37C2101.48 232.208 2106.04 225.247 2114.2 219.485C2122.36 213.724 2131.49 210.843 2141.57 210.843C2154.53 210.843 2165.09 216.124 2173.26 226.687C2181.9 236.769 2186.22 248.772 2186.22 262.695ZM2425.56 727.202C2389.07 727.682 2357.38 721.92 2330.49 709.918C2303.61 697.915 2277.92 679.911 2253.44 655.905C2251.04 653.985 2248.88 651.584 2246.95 648.704C2245.51 645.823 2244.79 642.462 2244.79 638.621C2244.79 632.86 2246.95 627.579 2251.28 622.778C2256.08 617.977 2261.36 615.576 2267.12 615.576C2272.88 615.576 2278.16 617.977 2282.96 622.778C2301.69 642.942 2322.81 658.306 2346.34 668.868C2370.34 679.431 2396.03 684.712 2423.4 684.712C2446.44 684.712 2466.85 681.111 2484.61 673.909C2502.85 666.708 2517.26 656.385 2527.82 642.942C2538.38 629.499 2543.66 613.896 2543.66 596.132C2543.66 574.047 2537.66 556.282 2525.66 542.839C2513.66 528.916 2497.81 517.634 2478.13 508.992C2458.44 499.87 2436.6 491.708 2412.59 484.506C2392.91 478.745 2374.18 472.263 2356.42 465.062C2338.66 457.38 2322.81 448.258 2308.89 437.695C2294.97 426.653 2284.16 413.21 2276.48 397.366C2268.8 381.522 2264.96 362.318 2264.96 339.753C2264.96 314.307 2271.68 291.742 2285.12 272.057C2298.57 252.373 2317.53 237.009 2342.02 225.967C2366.98 214.444 2395.79 208.683 2428.44 208.683C2456.76 208.683 2483.89 213.484 2509.82 223.086C2536.22 232.688 2557.11 246.851 2572.47 265.576C2579.67 273.258 2583.27 280.219 2583.27 286.461C2583.27 291.262 2580.87 296.063 2576.07 300.864C2571.27 305.665 2565.99 308.066 2560.23 308.066C2555.43 308.066 2551.34 306.385 2547.98 303.024C2539.82 292.942 2529.5 284.06 2517.02 276.378C2504.53 268.216 2490.61 261.975 2475.25 257.654C2460.36 253.333 2444.76 251.172 2428.44 251.172C2405.87 251.172 2385.47 254.773 2367.22 261.975C2349.46 268.696 2335.3 278.539 2324.73 291.502C2314.65 304.465 2309.61 320.068 2309.61 338.312C2309.61 358.477 2315.37 375.041 2326.89 388.004C2338.42 400.967 2353.54 411.769 2372.26 420.411C2390.99 428.573 2410.91 436.255 2432.04 443.457C2452.68 449.218 2472.37 455.939 2491.09 463.621C2510.3 470.823 2527.1 479.945 2541.5 490.987C2556.39 502.03 2567.91 515.953 2576.07 532.757C2584.71 549.561 2589.03 570.686 2589.03 596.132C2589.03 620.617 2582.07 642.702 2568.15 662.387C2554.23 682.071 2535.02 697.675 2510.54 709.198C2486.53 720.72 2458.2 726.722 2425.56 727.202ZM3037.67 720C3030.95 720 3025.43 717.84 3021.1 713.519C3017.26 709.198 3015.34 704.156 3015.34 698.395V239.65H3059.99V698.395C3059.99 704.156 3057.83 709.198 3053.51 713.519C3049.19 717.84 3043.91 720 3037.67 720ZM2866.27 256.934C2860.51 256.934 2855.47 255.013 2851.15 251.172C2846.82 247.332 2844.66 242.29 2844.66 236.049C2844.66 230.288 2846.82 225.487 2851.15 221.646C2855.47 217.805 2860.51 215.884 2866.27 215.884H3209.07C3214.83 215.884 3219.87 217.805 3224.19 221.646C3228.51 225.487 3230.67 230.528 3230.67 236.769C3230.67 243.011 3228.51 248.052 3224.19 251.893C3219.87 255.253 3214.83 256.934 3209.07 256.934H2866.27ZM3345.55 215.884C3351.31 215.884 3356.35 218.045 3360.67 222.366C3365.47 226.687 3367.88 231.968 3367.88 238.209V697.675C3367.39 703.916 3364.75 709.198 3359.95 713.519C3355.63 717.84 3350.59 720 3344.83 720C3338.11 720 3332.59 717.84 3328.27 713.519C3324.43 709.198 3322.5 703.916 3322.5 697.675V238.209C3322.5 231.968 3324.67 226.687 3328.99 222.366C3333.31 218.045 3338.83 215.884 3345.55 215.884ZM3683.31 215.884C3690.03 215.884 3695.31 218.045 3699.15 222.366C3703.47 226.687 3705.63 231.968 3705.63 238.209V697.675C3705.15 703.916 3702.75 709.198 3698.43 713.519C3694.59 717.84 3689.31 720 3682.59 720C3676.35 720 3671.06 717.84 3666.74 713.519C3662.42 709.198 3660.26 703.916 3660.26 697.675V238.209C3660.26 231.968 3662.42 226.687 3666.74 222.366C3671.54 218.045 3677.07 215.884 3683.31 215.884ZM3341.95 441.296H3684.03L3683.31 483.066H3339.07L3341.95 441.296ZM3862.43 215.884H4126.73C4132.49 215.884 4137.53 218.045 4141.86 222.366C4146.18 226.207 4148.34 231.248 4148.34 237.489C4148.34 243.731 4146.18 248.772 4141.86 252.613C4137.53 256.454 4132.49 258.374 4126.73 258.374H3879L3886.2 246.131V448.498L3878.28 439.136H4094.32C4100.09 439.136 4105.13 441.296 4109.45 445.617C4113.77 449.938 4115.93 454.979 4115.93 460.741C4115.93 466.982 4113.77 472.023 4109.45 475.864C4105.13 479.705 4100.09 481.625 4094.32 481.625H3879.72L3886.2 474.424V681.831L3882.6 677.51H4126.73C4132.49 677.51 4137.53 679.671 4141.86 683.992C4146.18 688.313 4148.34 693.354 4148.34 699.115C4148.34 705.357 4146.18 710.398 4141.86 714.239C4137.53 718.08 4132.49 720 4126.73 720H3862.43C3856.67 720 3851.63 717.84 3847.31 713.519C3842.99 709.198 3840.83 704.156 3840.83 698.395V237.489C3840.83 231.728 3842.99 226.687 3847.31 222.366C3851.63 218.045 3856.67 215.884 3862.43 215.884ZM4725.76 677.51C4731.52 677.51 4736.57 679.671 4740.89 683.992C4745.21 687.833 4747.37 692.634 4747.37 698.395C4747.37 704.636 4745.21 709.918 4740.89 714.239C4736.57 718.08 4731.52 720 4725.76 720H4468.66C4462.42 720 4457.14 717.84 4452.82 713.519C4448.98 709.198 4447.06 704.156 4447.06 698.395V237.489C4447.06 231.728 4449.22 226.687 4453.54 222.366C4457.86 218.045 4463.38 215.884 4470.1 215.884C4475.87 215.884 4480.91 218.045 4485.23 222.366C4490.03 226.687 4492.43 231.728 4492.43 237.489V689.753L4478.75 677.51H4725.76ZM5087.76 213.004C5094 213.004 5099.04 215.404 5102.88 220.205C5107.2 224.526 5109.36 229.327 5109.36 234.609C5109.36 237.009 5108.88 239.41 5107.92 241.81C5107.44 243.731 5106.48 245.891 5105.04 248.292L4935.8 480.905L4944.45 452.819V698.395C4944.45 704.156 4942.29 709.198 4937.96 713.519C4933.64 717.84 4928.36 720 4922.12 720C4915.88 720 4910.6 717.84 4906.28 713.519C4902.44 709.198 4900.52 704.156 4900.52 698.395V457.86L4904.12 475.144L4739.2 249.732C4737.28 247.332 4735.84 244.931 4734.88 242.53C4733.92 239.65 4733.44 237.009 4733.44 234.609C4733.44 228.367 4735.84 223.326 4740.64 219.485C4745.92 215.164 4751.2 213.004 4756.48 213.004C4763.68 213.004 4769.69 216.364 4774.49 223.086L4929.32 434.094L4918.52 432.654L5069.03 223.086C5073.84 216.364 5080.08 213.004 5087.76 213.004ZM5214.22 720C5207.01 720 5201.01 717.84 5196.21 713.519C5191.89 709.198 5189.73 704.156 5189.73 698.395V237.489C5189.73 231.728 5191.89 226.687 5196.21 222.366C5200.53 218.045 5205.57 215.884 5211.33 215.884H5405.78C5433.15 215.884 5457.63 221.886 5479.24 233.889C5500.84 245.411 5517.64 261.495 5529.65 282.14C5542.13 302.784 5548.37 326.07 5548.37 351.996C5548.37 373.12 5544.53 392.565 5536.85 410.329C5529.17 428.093 5518.37 443.217 5504.44 455.699C5490.52 467.702 5474.92 476.584 5457.63 482.345L5432.43 474.424C5450.19 475.864 5466.75 481.625 5482.12 491.708C5497.48 501.31 5509.72 514.753 5518.85 532.037C5528.45 548.841 5533.49 569.245 5533.97 593.251C5534.45 613.896 5535.41 629.979 5536.85 641.502C5538.77 653.025 5541.41 661.667 5544.77 667.428C5548.13 673.189 5552.45 677.75 5557.73 681.111C5562.54 683.992 5565.66 688.073 5567.1 693.354C5569.02 698.635 5568.54 703.676 5565.66 708.477C5563.74 712.318 5560.85 715.199 5557.01 717.119C5553.65 718.56 5550.05 719.28 5546.21 719.28C5542.37 719.28 5538.53 718.32 5534.69 716.399C5527.97 712.558 5521.01 706.557 5513.8 698.395C5507.08 690.233 5501.32 678.23 5496.52 662.387C5492.2 646.543 5490.04 624.458 5490.04 596.132C5490.04 577.407 5486.92 562.044 5480.68 550.041C5474.92 538.038 5467.23 528.916 5457.63 522.675C5448.51 515.953 5438.19 511.392 5426.66 508.992C5415.62 506.111 5405.06 504.671 5394.98 504.671H5227.18L5235.1 494.588V698.395C5235.1 704.156 5233.18 709.198 5229.34 713.519C5225.5 717.84 5220.46 720 5214.22 720ZM5227.18 465.062H5407.94C5424.26 463.621 5439.63 458.34 5454.03 449.218C5468.43 439.616 5479.96 426.653 5488.6 410.329C5497.72 394.005 5502.28 375.041 5502.28 353.436C5502.28 326.07 5492.92 303.504 5474.19 285.74C5455.95 267.496 5431.95 258.374 5402.18 258.374H5230.06L5235.1 248.292V475.144L5227.18 465.062ZM5717.55 697.675C5717.07 703.916 5714.43 709.198 5709.63 713.519C5705.31 717.84 5700.27 720 5694.51 720C5687.79 720 5682.27 717.84 5677.95 713.519C5674.1 709.198 5672.18 703.916 5672.18 697.675V238.209C5672.18 231.968 5674.34 226.687 5678.67 222.366C5682.99 218.045 5688.51 215.884 5695.23 215.884C5700.99 215.884 5706.03 218.045 5710.35 222.366C5715.15 226.687 5717.55 231.968 5717.55 238.209V697.675ZM6220.23 253.333C6225.99 257.174 6229.35 262.215 6230.31 268.456C6231.27 274.218 6229.83 279.979 6225.99 285.74C6222.63 290.061 6218.31 292.462 6213.03 292.942C6207.75 293.422 6202.71 292.462 6197.9 290.061C6179.66 278.059 6159.98 268.696 6138.85 261.975C6118.21 255.253 6095.88 251.893 6071.88 251.893C6042.59 251.893 6015.22 257.174 5989.78 267.736C5964.81 277.819 5942.97 292.702 5924.24 312.386C5905.52 331.591 5890.87 354.396 5880.31 380.802C5870.23 407.208 5865.19 436.255 5865.19 467.942C5865.19 500.59 5870.47 530.357 5881.03 557.243C5891.59 583.649 5906.24 606.454 5924.96 625.658C5944.17 644.863 5966.25 659.506 5991.22 669.588C6016.18 679.671 6043.07 684.712 6071.88 684.712C6095.4 684.712 6117.49 681.351 6138.13 674.63C6159.26 667.908 6178.94 658.786 6197.18 647.263C6201.99 644.383 6207.03 643.422 6212.31 644.383C6218.07 644.863 6222.63 647.503 6225.99 652.304C6230.31 657.586 6231.75 663.347 6230.31 669.588C6229.35 675.35 6226.23 679.911 6220.95 683.272C6208.95 690.953 6194.78 698.155 6178.46 704.877C6162.14 711.598 6144.85 716.879 6126.61 720.72C6108.36 725.041 6090.12 727.202 6071.88 727.202C6037.31 727.202 6004.9 720.96 5974.65 708.477C5944.41 695.994 5917.52 678.47 5893.99 655.905C5870.47 632.86 5851.99 605.494 5838.54 573.806C5825.58 542.119 5819.1 506.831 5819.1 467.942C5819.1 430.494 5825.58 396.166 5838.54 364.959C5851.51 333.271 5869.51 305.905 5892.55 282.86C5915.6 259.814 5942.49 241.81 5973.21 228.847C6003.94 215.884 6036.83 209.403 6071.88 209.403C6099.24 209.403 6125.65 213.244 6151.09 220.926C6176.54 228.607 6199.58 239.41 6220.23 253.333ZM6461.72 727.202C6425.23 727.682 6393.54 721.92 6366.65 709.918C6339.77 697.915 6314.08 679.911 6289.6 655.905C6287.2 653.985 6285.04 651.584 6283.11 648.704C6281.67 645.823 6280.95 642.462 6280.95 638.621C6280.95 632.86 6283.11 627.579 6287.44 622.778C6292.24 617.977 6297.52 615.576 6303.28 615.576C6309.04 615.576 6314.32 617.977 6319.12 622.778C6337.85 642.942 6358.97 658.306 6382.5 668.868C6406.5 679.431 6432.19 684.712 6459.56 684.712C6482.6 684.712 6503.01 681.111 6520.77 673.909C6539.01 666.708 6553.42 656.385 6563.98 642.942C6574.54 629.499 6579.82 613.896 6579.82 596.132C6579.82 574.047 6573.82 556.282 6561.82 542.839C6549.82 528.916 6533.97 517.634 6514.29 508.992C6494.6 499.87 6472.76 491.708 6448.75 484.506C6429.07 478.745 6410.34 472.263 6392.58 465.062C6374.82 457.38 6358.97 448.258 6345.05 437.695C6331.13 426.653 6320.32 413.21 6312.64 397.366C6304.96 381.522 6301.12 362.318 6301.12 339.753C6301.12 314.307 6307.84 291.742 6321.28 272.057C6334.73 252.373 6353.69 237.009 6378.18 225.967C6403.14 214.444 6431.95 208.683 6464.6 208.683C6492.92 208.683 6520.05 213.484 6545.98 223.086C6572.38 232.688 6593.27 246.851 6608.63 265.576C6615.83 273.258 6619.43 280.219 6619.43 286.461C6619.43 291.262 6617.03 296.063 6612.23 300.864C6607.43 305.665 6602.15 308.066 6596.39 308.066C6591.59 308.066 6587.5 306.385 6584.14 303.024C6575.98 292.942 6565.66 284.06 6553.18 276.378C6540.69 268.216 6526.77 261.975 6511.41 257.654C6496.52 253.333 6480.92 251.172 6464.6 251.172C6442.03 251.172 6421.63 254.773 6403.38 261.975C6385.62 268.696 6371.46 278.539 6360.89 291.502C6350.81 304.465 6345.77 320.068 6345.77 338.312C6345.77 358.477 6351.53 375.041 6363.05 388.004C6374.58 400.967 6389.7 411.769 6408.42 420.411C6427.15 428.573 6447.07 436.255 6468.2 443.457C6488.84 449.218 6508.53 455.939 6527.25 463.621C6546.46 470.823 6563.26 479.945 6577.66 490.987C6592.55 502.03 6604.07 515.953 6612.23 532.757C6620.87 549.561 6625.19 570.686 6625.19 596.132C6625.19 620.617 6618.23 642.702 6604.31 662.387C6590.39 682.071 6571.18 697.675 6546.7 709.198C6522.69 720.72 6494.36 726.722 6461.72 727.202ZM6804.17 478.024C6804.17 471.783 6806.33 466.502 6810.65 462.181C6814.97 457.86 6820.01 455.699 6825.78 455.699C6847.86 454.259 6867.55 448.738 6884.83 439.136C6902.11 429.533 6915.8 416.57 6925.88 400.247C6935.96 383.923 6941 364.959 6941 343.354C6941 320.788 6936.2 301.344 6926.6 285.02C6917.48 268.216 6904.99 255.253 6889.15 246.131C6873.31 236.529 6855.3 231.728 6835.14 231.728C6815.45 231.728 6796.97 236.289 6779.69 245.411C6762.4 254.533 6748 266.536 6736.48 281.419C6732.63 285.26 6728.07 288.141 6722.79 290.061C6717.99 291.502 6712.71 290.301 6706.95 286.461C6701.19 282.62 6697.83 277.819 6696.87 272.057C6695.91 265.816 6697.59 260.054 6701.91 254.773C6717.27 235.569 6736.72 219.965 6760.24 207.963C6783.77 195.96 6808.73 189.958 6835.14 189.958C6862.98 189.958 6888.19 196.2 6910.76 208.683C6933.8 221.166 6952.05 238.93 6965.49 261.975C6978.93 285.02 6985.65 312.146 6985.65 343.354C6985.65 362.558 6981.81 381.042 6974.13 398.806C6966.45 416.57 6955.89 432.414 6942.44 446.337C6929 460.26 6913.4 471.303 6895.63 479.465C6877.87 487.627 6858.66 492.188 6838.02 493.148C6836.58 493.148 6837.06 492.908 6839.46 492.428C6841.86 491.948 6844.26 490.507 6846.66 488.107V563.724C6846.66 569.966 6844.5 575.247 6840.18 579.568C6836.34 583.409 6831.3 585.329 6825.06 585.329C6818.81 585.329 6813.53 583.409 6809.21 579.568C6805.37 575.247 6803.69 569.966 6804.17 563.724V478.024ZM6825.78 720C6817.61 720 6811.13 717.599 6806.33 712.798C6802.01 707.517 6799.85 700.796 6799.85 692.634V676.79C6799.85 668.148 6802.01 661.427 6806.33 656.625C6811.13 651.824 6817.61 649.424 6825.78 649.424H6830.1C6838.74 649.424 6844.98 651.824 6848.82 656.625C6853.14 661.427 6855.3 668.148 6855.3 676.79V692.634C6855.3 700.796 6853.14 707.517 6848.82 712.798C6844.98 717.599 6838.74 720 6830.1 720H6825.78Z" fill="#CACACA"/>
<path d="M2054.3 1038.56C2055.85 1038.56 2057.21 1039.14 2058.37 1040.3C2059.54 1041.34 2060.12 1042.63 2060.12 1044.18C2060.12 1045.86 2059.54 1047.28 2058.37 1048.45C2057.21 1049.48 2055.85 1050 2054.3 1050H1985.05C1983.37 1050 1981.95 1049.42 1980.79 1048.25C1979.75 1047.09 1979.23 1045.73 1979.23 1044.18V920.039C1979.23 918.487 1979.82 917.129 1980.98 915.965C1982.14 914.802 1983.63 914.22 1985.44 914.22C1986.99 914.22 1988.35 914.802 1989.51 915.965C1990.81 917.129 1991.45 918.487 1991.45 920.039V1041.85L1987.77 1038.56H2054.3ZM2171.89 1000.34C2171.89 1010.17 2169.76 1019.03 2165.49 1026.92C2161.22 1034.68 2155.4 1040.82 2148.03 1045.34C2140.66 1049.74 2132.26 1051.94 2122.82 1051.94C2113.64 1051.94 2105.29 1049.74 2097.79 1045.34C2090.42 1040.82 2084.54 1034.68 2080.14 1026.92C2075.88 1019.03 2073.74 1010.17 2073.74 1000.34C2073.74 990.386 2075.88 981.528 2080.14 973.769C2084.54 966.01 2090.42 959.868 2097.79 955.342C2105.29 950.816 2113.64 948.553 2122.82 948.553C2132.26 948.553 2140.66 950.816 2148.03 955.342C2155.4 959.868 2161.22 966.01 2165.49 973.769C2169.76 981.528 2171.89 990.386 2171.89 1000.34ZM2160.25 1000.34C2160.25 992.455 2158.64 985.472 2155.4 979.394C2152.17 973.187 2147.71 968.338 2142.02 964.846C2136.46 961.226 2130.06 959.415 2122.82 959.415C2115.83 959.415 2109.5 961.226 2103.81 964.846C2098.12 968.338 2093.59 973.187 2090.23 979.394C2087 985.472 2085.38 992.455 2085.38 1000.34C2085.38 1008.23 2087 1015.21 2090.23 1021.29C2093.59 1027.37 2098.12 1032.22 2103.81 1035.84C2109.5 1039.33 2115.83 1041.08 2122.82 1041.08C2130.06 1041.08 2136.46 1039.33 2142.02 1035.84C2147.71 1032.22 2152.17 1027.37 2155.4 1021.29C2158.64 1015.21 2160.25 1008.23 2160.25 1000.34ZM2288.96 1000.34C2288.96 1010.17 2286.82 1019.03 2282.56 1026.92C2278.29 1034.68 2272.47 1040.82 2265.1 1045.34C2257.73 1049.74 2249.32 1051.94 2239.88 1051.94C2230.7 1051.94 2222.36 1049.74 2214.86 1045.34C2207.49 1040.82 2201.6 1034.68 2197.21 1026.92C2192.94 1019.03 2190.81 1010.17 2190.81 1000.34C2190.81 990.386 2192.94 981.528 2197.21 973.769C2201.6 966.01 2207.49 959.868 2214.86 955.342C2222.36 950.816 2230.7 948.553 2239.88 948.553C2249.32 948.553 2257.73 950.816 2265.1 955.342C2272.47 959.868 2278.29 966.01 2282.56 973.769C2286.82 981.528 2288.96 990.386 2288.96 1000.34ZM2277.32 1000.34C2277.32 992.455 2275.7 985.472 2272.47 979.394C2269.24 973.187 2264.77 968.338 2259.08 964.846C2253.52 961.226 2247.12 959.415 2239.88 959.415C2232.9 959.415 2226.56 961.226 2220.87 964.846C2215.18 968.338 2210.66 973.187 2207.29 979.394C2204.06 985.472 2202.45 992.455 2202.45 1000.34C2202.45 1008.23 2204.06 1015.21 2207.29 1021.29C2210.66 1027.37 2215.18 1032.22 2220.87 1035.84C2226.56 1039.33 2232.9 1041.08 2239.88 1041.08C2247.12 1041.08 2253.52 1039.33 2259.08 1035.84C2264.77 1032.22 2269.24 1027.37 2272.47 1021.29C2275.7 1015.21 2277.32 1008.23 2277.32 1000.34ZM2320.67 1050C2318.99 1050 2317.57 1049.42 2316.41 1048.25C2315.37 1047.09 2314.85 1045.73 2314.85 1044.18V912.28C2314.85 910.728 2315.37 909.37 2316.41 908.207C2317.57 907.043 2318.99 906.461 2320.67 906.461C2322.36 906.461 2323.71 907.043 2324.75 908.207C2325.91 909.37 2326.49 910.728 2326.49 912.28V1044.18C2326.49 1045.73 2325.91 1047.09 2324.75 1048.25C2323.71 1049.42 2322.36 1050 2320.67 1050ZM2386.62 950.492C2388.05 950.492 2389.34 951.139 2390.5 952.432C2391.67 953.596 2392.25 954.889 2392.25 956.312C2392.25 957.993 2391.54 959.48 2390.12 960.773L2324.94 1016.25L2324.36 1002.48L2382.55 952.432C2383.71 951.139 2385.07 950.492 2386.62 950.492ZM2388.18 1050C2386.5 1050 2385.07 1049.29 2383.91 1047.87L2339.68 1000.93L2348.41 992.972L2392.25 1039.72C2393.41 1041.01 2394 1042.5 2394 1044.18C2394 1045.99 2393.28 1047.41 2391.86 1048.45C2390.44 1049.48 2389.21 1050 2388.18 1050ZM2544.63 951.462C2546.31 951.462 2547.67 952.044 2548.71 953.208C2549.87 954.372 2550.45 955.73 2550.45 957.281V1011.98C2550.45 1024.78 2546.83 1034.55 2539.59 1041.27C2532.35 1048 2522.58 1051.36 2510.3 1051.36C2498.14 1051.36 2488.45 1048 2481.2 1041.27C2474.09 1034.55 2470.54 1024.78 2470.54 1011.98V957.281C2470.54 955.73 2471.05 954.372 2472.09 953.208C2473.25 952.044 2474.67 951.462 2476.35 951.462C2478.04 951.462 2479.39 952.044 2480.43 953.208C2481.59 954.372 2482.17 955.73 2482.17 957.281V1011.98C2482.17 1021.29 2484.63 1028.4 2489.54 1033.32C2494.59 1038.1 2501.51 1040.5 2510.3 1040.5C2519.22 1040.5 2526.21 1038.1 2531.25 1033.32C2536.29 1028.4 2538.81 1021.29 2538.81 1011.98V957.281C2538.81 955.73 2539.33 954.372 2540.37 953.208C2541.4 952.044 2542.82 951.462 2544.63 951.462ZM2628.11 950.104C2636.9 950.104 2644.66 952.303 2651.38 956.699C2658.24 960.967 2663.67 966.915 2667.68 974.545C2671.68 982.045 2673.69 990.709 2673.69 1000.54C2673.69 1010.37 2671.68 1019.09 2667.68 1026.72C2663.67 1034.35 2658.24 1040.37 2651.38 1044.76C2644.53 1049.16 2636.83 1051.36 2628.3 1051.36C2623.77 1051.36 2619.44 1050.71 2615.3 1049.42C2611.29 1048 2607.61 1046.12 2604.25 1043.79C2600.89 1041.47 2597.91 1038.75 2595.32 1035.65C2592.74 1032.41 2590.67 1028.92 2589.12 1025.17L2592.61 1022.65V1082.98C2592.61 1084.53 2592.03 1085.88 2590.86 1087.05C2589.83 1088.21 2588.47 1088.79 2586.79 1088.79C2585.11 1088.79 2583.69 1088.21 2582.52 1087.05C2581.49 1085.88 2580.97 1084.53 2580.97 1082.98V956.506C2580.97 954.824 2581.49 953.402 2582.52 952.238C2583.56 951.074 2584.98 950.492 2586.79 950.492C2588.47 950.492 2589.83 951.074 2590.86 952.238C2592.03 953.402 2592.61 954.824 2592.61 956.506V977.454L2589.89 975.903C2591.19 971.894 2593.06 968.338 2595.52 965.234C2598.1 962.001 2601.08 959.286 2604.44 957.087C2607.8 954.76 2611.49 953.014 2615.5 951.85C2619.51 950.686 2623.71 950.104 2628.11 950.104ZM2627.14 960.967C2620.15 960.967 2614.01 962.713 2608.71 966.204C2603.41 969.566 2599.2 974.222 2596.1 980.17C2593.13 985.989 2591.64 992.778 2591.64 1000.54C2591.64 1008.17 2593.13 1015.02 2596.1 1021.1C2599.2 1027.18 2603.41 1031.96 2608.71 1035.45C2614.01 1038.81 2620.15 1040.5 2627.14 1040.5C2633.99 1040.5 2640 1038.81 2645.18 1035.45C2650.48 1031.96 2654.68 1027.18 2657.78 1021.1C2660.89 1015.02 2662.44 1008.17 2662.44 1000.54C2662.44 992.908 2660.89 986.119 2657.78 980.17C2654.68 974.222 2650.48 969.566 2645.18 966.204C2640 962.713 2633.99 960.967 2627.14 960.967ZM2825.55 949.135C2827.23 949.135 2828.59 949.716 2829.62 950.88C2830.78 952.044 2831.37 953.402 2831.37 954.954V1040.5C2831.37 1050.97 2829.3 1059.76 2825.16 1066.88C2821.02 1074.12 2815.46 1079.55 2808.48 1083.17C2801.49 1086.92 2793.54 1088.79 2784.62 1088.79C2779.06 1088.79 2773.89 1088.15 2769.1 1086.85C2764.45 1085.69 2760.63 1084.14 2757.66 1082.2C2756.1 1081.29 2754.94 1080.19 2754.16 1078.9C2753.39 1077.61 2753.32 1076.25 2753.97 1074.83C2754.62 1073.02 2755.59 1071.79 2756.88 1071.14C2758.3 1070.63 2759.73 1070.69 2761.15 1071.34C2763.35 1072.5 2766.51 1073.92 2770.65 1075.6C2774.79 1077.29 2779.51 1078.13 2784.81 1078.13C2791.92 1078.13 2798.07 1076.64 2803.24 1073.66C2808.54 1070.69 2812.62 1066.36 2815.46 1060.67C2818.3 1055.11 2819.73 1048.45 2819.73 1040.69V1026.72L2821.09 1031.38C2819.15 1035.39 2816.37 1038.94 2812.74 1042.05C2809.25 1045.15 2805.18 1047.61 2800.52 1049.42C2796 1051.1 2791.15 1051.94 2785.98 1051.94C2778.22 1051.94 2771.75 1050.39 2766.58 1047.28C2761.54 1044.05 2757.79 1039.65 2755.33 1034.09C2752.87 1028.53 2751.64 1022 2751.64 1014.5V954.954C2751.64 953.402 2752.16 952.044 2753.2 950.88C2754.23 949.716 2755.65 949.135 2757.46 949.135C2759.14 949.135 2760.5 949.716 2761.54 950.88C2762.7 952.044 2763.28 953.402 2763.28 954.954V1012.76C2763.28 1021.81 2765.22 1028.79 2769.1 1033.71C2773.11 1038.62 2779.58 1041.08 2788.5 1041.08C2794.06 1041.08 2799.17 1039.78 2803.82 1037.2C2808.48 1034.48 2812.29 1030.99 2815.27 1026.72C2818.24 1022.33 2819.73 1017.67 2819.73 1012.76V954.954C2819.73 953.402 2820.24 952.044 2821.28 950.88C2822.44 949.716 2823.87 949.135 2825.55 949.135ZM2953.27 1000.34C2953.27 1010.17 2951.14 1019.03 2946.87 1026.92C2942.6 1034.68 2936.78 1040.82 2929.41 1045.34C2922.04 1049.74 2913.64 1051.94 2904.2 1051.94C2895.02 1051.94 2886.68 1049.74 2879.18 1045.34C2871.8 1040.82 2865.92 1034.68 2861.52 1026.92C2857.26 1019.03 2855.12 1010.17 2855.12 1000.34C2855.12 990.386 2857.26 981.528 2861.52 973.769C2865.92 966.01 2871.8 959.868 2879.18 955.342C2886.68 950.816 2895.02 948.553 2904.2 948.553C2913.64 948.553 2922.04 950.816 2929.41 955.342C2936.78 959.868 2942.6 966.01 2946.87 973.769C2951.14 981.528 2953.27 990.386 2953.27 1000.34ZM2941.63 1000.34C2941.63 992.455 2940.02 985.472 2936.78 979.394C2933.55 973.187 2929.09 968.338 2923.4 964.846C2917.84 961.226 2911.44 959.415 2904.2 959.415C2897.21 959.415 2890.88 961.226 2885.19 964.846C2879.5 968.338 2874.97 973.187 2871.61 979.394C2868.38 985.472 2866.76 992.455 2866.76 1000.34C2866.76 1008.23 2868.38 1015.21 2871.61 1021.29C2874.97 1027.37 2879.5 1032.22 2885.19 1035.84C2890.88 1039.33 2897.21 1041.08 2904.2 1041.08C2911.44 1041.08 2917.84 1039.33 2923.4 1035.84C2929.09 1032.22 2933.55 1027.37 2936.78 1021.29C2940.02 1015.21 2941.63 1008.23 2941.63 1000.34ZM3052.1 951.462C3053.79 951.462 3055.14 952.044 3056.18 953.208C3057.34 954.372 3057.92 955.73 3057.92 957.281V1011.98C3057.92 1024.78 3054.3 1034.55 3047.06 1041.27C3039.82 1048 3030.06 1051.36 3017.77 1051.36C3005.62 1051.36 2995.92 1048 2988.68 1041.27C2981.56 1034.55 2978.01 1024.78 2978.01 1011.98V957.281C2978.01 955.73 2978.52 954.372 2979.56 953.208C2980.72 952.044 2982.15 951.462 2983.83 951.462C2985.51 951.462 2986.87 952.044 2987.9 953.208C2989.06 954.372 2989.65 955.73 2989.65 957.281V1011.98C2989.65 1021.29 2992.1 1028.4 2997.02 1033.32C3002.06 1038.1 3008.98 1040.5 3017.77 1040.5C3026.69 1040.5 3033.68 1038.1 3038.72 1033.32C3043.76 1028.4 3046.29 1021.29 3046.29 1011.98V957.281C3046.29 955.73 3046.8 954.372 3047.84 953.208C3048.87 952.044 3050.29 951.462 3052.1 951.462ZM3094.26 1050C3092.45 1050 3091.03 1049.42 3089.99 1048.25C3088.96 1047.09 3088.44 1045.73 3088.44 1044.18V957.281C3088.44 955.73 3088.96 954.372 3089.99 953.208C3091.16 952.044 3092.58 951.462 3094.26 951.462C3095.94 951.462 3097.3 952.044 3098.33 953.208C3099.5 954.372 3100.08 955.73 3100.08 957.281V986.377L3097.17 986.959C3097.56 982.433 3098.66 977.972 3100.47 973.575C3102.41 969.049 3104.99 964.911 3108.23 961.161C3111.46 957.411 3115.27 954.372 3119.67 952.044C3124.2 949.717 3129.24 948.553 3134.8 948.553C3137.13 948.553 3139.39 949.07 3141.59 950.104C3143.79 951.01 3144.89 952.561 3144.89 954.76C3144.89 956.699 3144.37 958.187 3143.34 959.221C3142.3 960.256 3141.07 960.773 3139.65 960.773C3138.49 960.773 3137.19 960.45 3135.77 959.803C3134.48 959.156 3132.73 958.833 3130.53 958.833C3126.91 958.833 3123.29 959.932 3119.67 962.131C3116.05 964.2 3112.75 967.045 3109.78 970.665C3106.8 974.286 3104.41 978.36 3102.6 982.886C3100.92 987.282 3100.08 991.744 3100.08 996.27V1044.18C3100.08 1045.73 3099.5 1047.09 3098.33 1048.25C3097.17 1049.42 3095.81 1050 3094.26 1050ZM3252 907.237C3253.94 907.237 3256.01 907.431 3258.21 907.819C3260.53 908.207 3262.54 908.918 3264.22 909.952C3265.9 910.857 3266.74 912.28 3266.74 914.22C3266.74 915.642 3266.22 916.935 3265.19 918.099C3264.16 919.134 3262.99 919.651 3261.7 919.651C3260.41 919.651 3258.79 919.328 3256.85 918.681C3254.91 917.905 3252.84 917.517 3250.64 917.517C3247.93 917.517 3245.6 918.164 3243.66 919.457C3241.72 920.621 3240.23 922.366 3239.2 924.694C3238.16 926.892 3237.65 929.608 3237.65 932.841V1044.18C3237.65 1045.73 3237.06 1047.09 3235.9 1048.25C3234.87 1049.42 3233.51 1050 3231.83 1050C3230.15 1050 3228.72 1049.42 3227.56 1048.25C3226.52 1047.09 3226.01 1045.73 3226.01 1044.18V932.841C3226.01 924.565 3228.4 918.228 3233.18 913.832C3238.1 909.435 3244.37 907.237 3252 907.237ZM3259.37 952.82C3260.92 952.82 3262.22 953.337 3263.25 954.372C3264.28 955.406 3264.8 956.699 3264.8 958.251C3264.8 959.803 3264.28 961.096 3263.25 962.131C3262.22 963.165 3260.92 963.682 3259.37 963.682H3211.85C3210.43 963.682 3209.13 963.165 3207.97 962.131C3206.93 960.967 3206.42 959.674 3206.42 958.251C3206.42 956.57 3206.93 955.277 3207.97 954.372C3209.13 953.337 3210.43 952.82 3211.85 952.82H3259.37ZM3367.29 950.88C3368.97 950.88 3370.33 951.462 3371.36 952.626C3372.52 953.79 3373.11 955.212 3373.11 956.893V1044.18C3373.11 1045.73 3372.52 1047.09 3371.36 1048.25C3370.2 1049.42 3368.84 1050 3367.29 1050C3365.61 1050 3364.18 1049.42 3363.02 1048.25C3361.99 1047.09 3361.47 1045.73 3361.47 1044.18V1021.1L3364.77 1019.55C3364.77 1023.17 3363.73 1026.85 3361.66 1030.6C3359.72 1034.35 3357.01 1037.84 3353.52 1041.08C3350.02 1044.31 3345.89 1046.96 3341.1 1049.03C3336.45 1050.97 3331.4 1051.94 3325.97 1051.94C3317.18 1051.94 3309.29 1049.68 3302.31 1045.15C3295.45 1040.62 3290.02 1034.42 3286.01 1026.53C3282.13 1018.64 3280.19 1009.78 3280.19 999.955C3280.19 989.869 3282.2 981.011 3286.21 973.381C3290.22 965.622 3295.65 959.544 3302.5 955.148C3309.35 950.751 3317.11 948.553 3325.78 948.553C3331.34 948.553 3336.51 949.523 3341.3 951.462C3346.21 953.402 3350.48 956.053 3354.1 959.415C3357.72 962.777 3360.5 966.657 3362.44 971.053C3364.51 975.321 3365.54 979.782 3365.54 984.437L3361.47 981.528V956.893C3361.47 955.212 3361.99 953.79 3363.02 952.626C3364.18 951.462 3365.61 950.88 3367.29 950.88ZM3326.94 1041.08C3333.79 1041.08 3339.87 1039.33 3345.17 1035.84C3350.48 1032.22 3354.61 1027.31 3357.59 1021.1C3360.69 1014.76 3362.24 1007.71 3362.24 999.955C3362.24 992.326 3360.69 985.472 3357.59 979.394C3354.61 973.316 3350.48 968.467 3345.17 964.846C3339.87 961.226 3333.79 959.415 3326.94 959.415C3320.22 959.415 3314.14 961.161 3308.71 964.652C3303.41 968.144 3299.2 972.928 3296.1 979.006C3293.13 985.084 3291.64 992.067 3291.64 999.955C3291.64 1007.71 3293.13 1014.76 3296.1 1021.1C3299.2 1027.31 3303.41 1032.22 3308.71 1035.84C3314.01 1039.33 3320.09 1041.08 3326.94 1041.08ZM3399.05 948.747C3400.08 948.747 3401.11 949.07 3402.15 949.717C3403.18 950.363 3403.96 951.333 3404.48 952.626L3438.42 1033.32L3435.9 1034.87L3470.62 952.626C3471.66 950.04 3473.53 948.811 3476.25 948.941C3477.54 948.941 3478.77 949.393 3479.93 950.298C3481.1 951.074 3481.68 952.238 3481.68 953.79C3481.68 954.566 3481.55 955.212 3481.29 955.73C3481.16 956.118 3481.03 956.57 3480.9 957.087L3442.88 1046.31C3441.85 1048.64 3440.1 1049.87 3437.65 1050C3436.48 1050.13 3435.32 1049.87 3434.15 1049.22C3433.12 1048.45 3432.34 1047.48 3431.83 1046.31L3393.61 957.087C3393.49 956.829 3393.36 956.441 3393.23 955.924C3393.1 955.406 3393.03 954.889 3393.03 954.372C3393.03 952.949 3393.55 951.656 3394.58 950.492C3395.62 949.329 3397.11 948.747 3399.05 948.747ZM3595.43 1000.34C3595.43 1010.17 3593.29 1019.03 3589.02 1026.92C3584.76 1034.68 3578.94 1040.82 3571.57 1045.34C3564.2 1049.74 3555.79 1051.94 3546.35 1051.94C3537.17 1051.94 3528.83 1049.74 3521.33 1045.34C3513.96 1040.82 3508.07 1034.68 3503.68 1026.92C3499.41 1019.03 3497.28 1010.17 3497.28 1000.34C3497.28 990.386 3499.41 981.528 3503.68 973.769C3508.07 966.01 3513.96 959.868 3521.33 955.342C3528.83 950.816 3537.17 948.553 3546.35 948.553C3555.79 948.553 3564.2 950.816 3571.57 955.342C3578.94 959.868 3584.76 966.01 3589.02 973.769C3593.29 981.528 3595.43 990.386 3595.43 1000.34ZM3583.79 1000.34C3583.79 992.455 3582.17 985.472 3578.94 979.394C3575.71 973.187 3571.24 968.338 3565.55 964.846C3559.99 961.226 3553.59 959.415 3546.35 959.415C3539.37 959.415 3533.03 961.226 3527.34 964.846C3521.65 968.338 3517.13 973.187 3513.76 979.394C3510.53 985.472 3508.91 992.455 3508.91 1000.34C3508.91 1008.23 3510.53 1015.21 3513.76 1021.29C3517.13 1027.37 3521.65 1032.22 3527.34 1035.84C3533.03 1039.33 3539.37 1041.08 3546.35 1041.08C3553.59 1041.08 3559.99 1039.33 3565.55 1035.84C3571.24 1032.22 3575.71 1027.37 3578.94 1021.29C3582.17 1015.21 3583.79 1008.23 3583.79 1000.34ZM3694.26 951.462C3695.94 951.462 3697.3 952.044 3698.33 953.208C3699.49 954.372 3700.08 955.73 3700.08 957.281V1011.98C3700.08 1024.78 3696.46 1034.55 3689.21 1041.27C3681.97 1048 3672.21 1051.36 3659.92 1051.36C3647.77 1051.36 3638.07 1048 3630.83 1041.27C3623.72 1034.55 3620.16 1024.78 3620.16 1011.98V957.281C3620.16 955.73 3620.68 954.372 3621.71 953.208C3622.88 952.044 3624.3 951.462 3625.98 951.462C3627.66 951.462 3629.02 952.044 3630.05 953.208C3631.22 954.372 3631.8 955.73 3631.8 957.281V1011.98C3631.8 1021.29 3634.26 1028.4 3639.17 1033.32C3644.21 1038.1 3651.13 1040.5 3659.92 1040.5C3668.85 1040.5 3675.83 1038.1 3680.87 1033.32C3685.92 1028.4 3688.44 1021.29 3688.44 1011.98V957.281C3688.44 955.73 3688.96 954.372 3689.99 953.208C3691.02 952.044 3692.45 951.462 3694.26 951.462ZM3736.41 1050C3734.6 1050 3733.18 1049.42 3732.15 1048.25C3731.11 1047.09 3730.6 1045.73 3730.6 1044.18V957.281C3730.6 955.73 3731.11 954.372 3732.15 953.208C3733.31 952.044 3734.73 951.462 3736.41 951.462C3738.1 951.462 3739.45 952.044 3740.49 953.208C3741.65 954.372 3742.23 955.73 3742.23 957.281V986.377L3739.32 986.959C3739.71 982.433 3740.81 977.972 3742.62 973.575C3744.56 969.049 3747.15 964.911 3750.38 961.161C3753.61 957.411 3757.43 954.372 3761.82 952.044C3766.35 949.717 3771.39 948.553 3776.95 948.553C3779.28 948.553 3781.55 949.07 3783.74 950.104C3785.94 951.01 3787.04 952.561 3787.04 954.76C3787.04 956.699 3786.52 958.187 3785.49 959.221C3784.45 960.256 3783.23 960.773 3781.8 960.773C3780.64 960.773 3779.35 960.45 3777.92 959.803C3776.63 959.156 3774.89 958.833 3772.69 958.833C3769.07 958.833 3765.45 959.932 3761.82 962.131C3758.2 964.2 3754.91 967.045 3751.93 970.665C3748.96 974.286 3746.57 978.36 3744.76 982.886C3743.07 987.282 3742.23 991.744 3742.23 996.27V1044.18C3742.23 1045.73 3741.65 1047.09 3740.49 1048.25C3739.32 1049.42 3737.97 1050 3736.41 1050ZM3816.48 1044.18C3816.48 1045.73 3815.9 1047.09 3814.73 1048.25C3813.57 1049.42 3812.21 1050 3810.66 1050C3808.98 1050 3807.56 1049.42 3806.39 1048.25C3805.36 1047.09 3804.84 1045.73 3804.84 1044.18V954.954C3804.84 953.402 3805.36 952.044 3806.39 950.88C3807.56 949.716 3808.98 949.135 3810.66 949.135C3812.34 949.135 3813.7 949.716 3814.73 950.88C3815.9 952.044 3816.48 953.402 3816.48 954.954V1044.18ZM3810.66 936.138C3807.94 936.138 3805.88 935.557 3804.45 934.393C3803.16 933.1 3802.51 931.289 3802.51 928.962V927.022C3802.51 924.694 3803.22 922.948 3804.65 921.785C3806.2 920.491 3808.27 919.845 3810.85 919.845C3813.31 919.845 3815.19 920.491 3816.48 921.785C3817.9 922.948 3818.61 924.694 3818.61 927.022V928.962C3818.61 931.289 3817.9 933.1 3816.48 934.393C3815.19 935.557 3813.25 936.138 3810.66 936.138ZM3840.31 951.268H3885.51C3887.06 951.268 3888.35 951.85 3889.39 953.014C3890.42 954.049 3890.94 955.342 3890.94 956.893C3890.94 958.316 3890.42 959.544 3889.39 960.579C3888.35 961.613 3887.06 962.131 3885.51 962.131H3840.31C3838.76 962.131 3837.4 961.613 3836.24 960.579C3835.2 959.415 3834.69 958.122 3834.69 956.699C3834.69 955.148 3835.2 953.855 3836.24 952.82C3837.4 951.786 3838.76 951.268 3840.31 951.268ZM3860.29 923.918C3861.97 923.918 3863.33 924.5 3864.36 925.664C3865.53 926.828 3866.11 928.186 3866.11 929.737V1027.11C3866.11 1030.73 3866.56 1033.45 3867.47 1035.26C3868.5 1037.07 3869.8 1038.3 3871.35 1038.94C3872.9 1039.46 3874.45 1039.72 3876 1039.72C3877.04 1039.72 3877.94 1039.59 3878.72 1039.33C3879.62 1038.94 3880.59 1038.75 3881.63 1038.75C3882.79 1038.75 3883.76 1039.2 3884.54 1040.11C3885.44 1041.01 3885.9 1042.18 3885.9 1043.6C3885.9 1045.41 3884.86 1046.96 3882.79 1048.25C3880.72 1049.42 3878.27 1050 3875.42 1050C3874.26 1050 3872.51 1049.94 3870.18 1049.81C3867.86 1049.55 3865.46 1048.84 3863.01 1047.67C3860.55 1046.38 3858.48 1044.18 3856.8 1041.08C3855.25 1037.97 3854.47 1033.51 3854.47 1027.69V929.737C3854.47 928.186 3854.99 926.828 3856.02 925.664C3857.19 924.5 3858.61 923.918 3860.29 923.918ZM3956.3 1051.94C3946.35 1051.94 3937.55 1049.81 3929.92 1045.54C3922.29 1041.27 3916.35 1035.32 3912.08 1027.69C3907.81 1020.06 3905.68 1011.14 3905.68 1000.93C3905.68 989.933 3907.81 980.558 3912.08 972.799C3916.48 965.04 3922.1 959.092 3928.95 954.954C3935.94 950.686 3943.31 948.553 3951.07 948.553C3956.76 948.553 3962.25 949.587 3967.55 951.656C3972.99 953.596 3977.77 956.57 3981.91 960.579C3986.18 964.458 3989.54 969.243 3992 974.933C3994.58 980.623 3996 987.218 3996.26 994.718C3996.13 996.27 3995.49 997.628 3994.32 998.791C3993.16 999.826 3991.8 1000.34 3990.25 1000.34H3912.47L3910.14 989.869H3986.56L3984.04 992.196V988.317C3983.53 982.239 3981.59 977.067 3978.22 972.799C3974.86 968.532 3970.79 965.299 3966 963.101C3961.22 960.902 3956.24 959.803 3951.07 959.803C3947.19 959.803 3943.18 960.579 3939.04 962.131C3935.03 963.682 3931.35 966.139 3927.98 969.502C3924.75 972.735 3922.1 976.937 3920.03 982.11C3917.96 987.153 3916.93 993.166 3916.93 1000.15C3916.93 1007.78 3918.48 1014.7 3921.58 1020.9C3924.69 1027.11 3929.15 1032.03 3934.97 1035.65C3940.92 1039.27 3947.96 1041.08 3956.11 1041.08C3960.64 1041.08 3964.71 1040.43 3968.33 1039.14C3971.95 1037.84 3975.12 1036.16 3977.84 1034.09C3980.55 1031.9 3982.81 1029.63 3984.62 1027.31C3986.05 1026.14 3987.47 1025.56 3988.89 1025.56C3990.18 1025.56 3991.28 1026.08 3992.19 1027.11C3993.22 1028.15 3993.74 1029.31 3993.74 1030.6C3993.74 1032.15 3993.09 1033.51 3991.8 1034.68C3987.92 1039.33 3982.88 1043.4 3976.67 1046.9C3970.46 1050.26 3963.68 1051.94 3956.3 1051.94ZM4068.59 1034.29C4067.55 1032.74 4067.04 1031.25 4067.04 1029.83C4067.17 1028.28 4068.01 1027.05 4069.56 1026.14C4070.59 1025.24 4071.76 1024.85 4073.05 1024.98C4074.47 1025.11 4075.77 1025.75 4076.93 1026.92C4080.42 1031.44 4084.62 1035.13 4089.54 1037.97C4094.58 1040.69 4100.53 1042.05 4107.38 1042.05C4111 1042.05 4114.56 1041.47 4118.05 1040.3C4121.67 1039.01 4124.65 1037.13 4126.97 1034.68C4129.3 1032.09 4130.47 1028.86 4130.47 1024.98C4130.47 1020.97 4129.3 1017.74 4126.97 1015.28C4124.65 1012.82 4121.61 1010.88 4117.86 1009.46C4114.24 1008.04 4110.36 1006.81 4106.22 1005.77C4101.82 1004.61 4097.55 1003.32 4093.42 1001.89C4089.28 1000.34 4085.59 998.468 4082.36 996.27C4079.26 993.942 4076.74 991.162 4074.8 987.929C4072.86 984.696 4071.89 980.752 4071.89 976.097C4071.89 970.665 4073.37 965.881 4076.35 961.743C4079.32 957.605 4083.33 954.372 4088.37 952.044C4093.55 949.717 4099.37 948.553 4105.83 948.553C4109.06 948.553 4112.56 949.005 4116.31 949.91C4120.06 950.686 4123.74 952.044 4127.36 953.984C4130.98 955.924 4134.22 958.575 4137.06 961.937C4138.22 963.101 4138.81 964.458 4138.81 966.01C4138.81 967.433 4138.16 968.726 4136.87 969.89C4135.83 970.665 4134.6 971.053 4133.18 971.053C4131.89 971.053 4130.79 970.536 4129.88 969.502C4126.78 966.01 4123.09 963.359 4118.83 961.549C4114.56 959.738 4109.97 958.833 4105.06 958.833C4101.31 958.833 4097.75 959.48 4094.39 960.773C4091.15 961.937 4088.44 963.747 4086.24 966.204C4084.04 968.661 4082.94 971.894 4082.94 975.903C4083.2 979.653 4084.49 982.692 4086.82 985.019C4089.28 987.347 4092.45 989.287 4096.33 990.839C4100.34 992.39 4104.8 993.813 4109.71 995.106C4113.85 996.14 4117.79 997.369 4121.54 998.791C4125.42 1000.21 4128.78 1002.02 4131.63 1004.22C4134.6 1006.29 4136.93 1008.94 4138.61 1012.18C4140.42 1015.41 4141.33 1019.48 4141.33 1024.4C4141.33 1030.09 4139.71 1035 4136.48 1039.14C4133.38 1043.28 4129.17 1046.44 4123.87 1048.64C4118.57 1050.84 4112.68 1051.94 4106.22 1051.94C4099.24 1051.94 4092.45 1050.58 4085.85 1047.87C4079.39 1045.15 4073.63 1040.62 4068.59 1034.29ZM4257.47 1000.34C4257.47 1010.17 4255.33 1019.03 4251.07 1026.92C4246.8 1034.68 4240.98 1040.82 4233.61 1045.34C4226.24 1049.74 4217.83 1051.94 4208.39 1051.94C4199.21 1051.94 4190.87 1049.74 4183.37 1045.34C4176 1040.82 4170.12 1034.68 4165.72 1026.92C4161.45 1019.03 4159.32 1010.17 4159.32 1000.34C4159.32 990.386 4161.45 981.528 4165.72 973.769C4170.12 966.01 4176 959.868 4183.37 955.342C4190.87 950.816 4199.21 948.553 4208.39 948.553C4217.83 948.553 4226.24 950.816 4233.61 955.342C4240.98 959.868 4246.8 966.01 4251.07 973.769C4255.33 981.528 4257.47 990.386 4257.47 1000.34ZM4245.83 1000.34C4245.83 992.455 4244.21 985.472 4240.98 979.394C4237.75 973.187 4233.29 968.338 4227.6 964.846C4222.04 961.226 4215.64 959.415 4208.39 959.415C4201.41 959.415 4195.07 961.226 4189.38 964.846C4183.69 968.338 4179.17 973.187 4175.81 979.394C4172.57 985.472 4170.96 992.455 4170.96 1000.34C4170.96 1008.23 4172.57 1015.21 4175.81 1021.29C4179.17 1027.37 4183.69 1032.22 4189.38 1035.84C4195.07 1039.33 4201.41 1041.08 4208.39 1041.08C4215.64 1041.08 4222.04 1039.33 4227.6 1035.84C4233.29 1032.22 4237.75 1027.37 4240.98 1021.29C4244.21 1015.21 4245.83 1008.23 4245.83 1000.34ZM4328.95 948.553C4337.49 948.553 4344.27 950.298 4349.32 953.79C4354.49 957.152 4358.18 961.807 4360.37 967.756C4362.7 973.575 4363.87 980.041 4363.87 987.153V1044.18C4363.87 1045.73 4363.28 1047.09 4362.12 1048.25C4360.96 1049.42 4359.6 1050 4358.05 1050C4356.24 1050 4354.81 1049.42 4353.78 1048.25C4352.74 1047.09 4352.23 1045.73 4352.23 1044.18V987.735C4352.23 982.562 4351.39 977.842 4349.71 973.575C4348.02 969.308 4345.24 965.881 4341.36 963.295C4337.61 960.708 4332.64 959.415 4326.43 959.415C4320.87 959.415 4315.57 960.708 4310.52 963.295C4305.61 965.881 4301.6 969.308 4298.5 973.575C4295.39 977.842 4293.84 982.562 4293.84 987.735V1044.18C4293.84 1045.73 4293.26 1047.09 4292.1 1048.25C4290.93 1049.42 4289.57 1050 4288.02 1050C4286.21 1050 4284.79 1049.42 4283.75 1048.25C4282.72 1047.09 4282.2 1045.73 4282.2 1044.18V957.281C4282.2 955.73 4282.72 954.372 4283.75 953.208C4284.92 952.044 4286.34 951.462 4288.02 951.462C4289.7 951.462 4291.06 952.044 4292.1 953.208C4293.26 954.372 4293.84 955.73 4293.84 957.281V973.575L4289.38 980.558C4289.64 976.42 4290.93 972.476 4293.26 968.726C4295.72 964.846 4298.82 961.419 4302.57 958.445C4306.32 955.342 4310.46 952.949 4314.98 951.268C4319.64 949.458 4324.3 948.553 4328.95 948.553ZM4435.66 948.553C4441.48 948.553 4446.84 949.587 4451.76 951.656C4456.67 953.596 4460.94 956.182 4464.56 959.415C4468.31 962.519 4471.22 965.881 4473.29 969.502C4475.36 972.993 4476.39 976.355 4476.39 979.588L4473.1 974.933V956.893C4473.1 955.212 4473.61 953.79 4474.65 952.626C4475.81 951.462 4477.23 950.88 4478.91 950.88C4480.73 950.88 4482.15 951.462 4483.18 952.626C4484.22 953.79 4484.73 955.212 4484.73 956.893V1040.88C4484.73 1051.23 4482.6 1059.96 4478.33 1067.07C4474.07 1074.18 4468.25 1079.55 4460.88 1083.17C4453.63 1086.92 4445.36 1088.79 4436.05 1088.79C4431.52 1088.79 4426.74 1088.21 4421.69 1087.05C4416.78 1085.88 4412.51 1084.4 4408.89 1082.59C4405.4 1080.78 4403.46 1078.9 4403.07 1076.96C4402.04 1075.8 4401.52 1074.63 4401.52 1073.47C4401.65 1072.44 4402.23 1071.53 4403.27 1070.75C4404.56 1069.85 4405.92 1069.72 4407.34 1070.37C4408.76 1071.14 4410.9 1072.11 4413.74 1073.28C4415.03 1073.66 4416.78 1074.25 4418.98 1075.02C4421.18 1075.8 4423.76 1076.44 4426.74 1076.96C4429.84 1077.61 4433.07 1077.93 4436.43 1077.93C4448.07 1077.93 4457.06 1074.57 4463.4 1067.85C4469.86 1061.25 4473.1 1052.52 4473.1 1041.66V1023.04L4475.23 1023.62C4474.07 1028.28 4472.13 1032.35 4469.41 1035.84C4466.82 1039.33 4463.72 1042.31 4460.1 1044.76C4456.48 1047.09 4452.53 1048.84 4448.27 1050C4444.13 1051.29 4439.99 1051.94 4435.85 1051.94C4426.93 1051.94 4418.91 1049.68 4411.8 1045.15C4404.69 1040.62 4399 1034.48 4394.73 1026.72C4390.59 1018.96 4388.52 1010.11 4388.52 1000.15C4388.52 990.321 4390.59 981.528 4394.73 973.769C4399 965.881 4404.62 959.738 4411.61 955.342C4418.72 950.816 4426.74 948.553 4435.66 948.553ZM4437.02 959.415C4429.9 959.415 4423.5 961.226 4417.81 964.846C4412.25 968.338 4407.86 973.187 4404.62 979.394C4401.52 985.472 4399.97 992.39 4399.97 1000.15C4399.97 1007.91 4401.52 1014.89 4404.62 1021.1C4407.86 1027.31 4412.25 1032.22 4417.81 1035.84C4423.5 1039.33 4429.9 1041.08 4437.02 1041.08C4444.13 1041.08 4450.47 1039.33 4456.03 1035.84C4461.59 1032.35 4465.98 1027.56 4469.22 1021.49C4472.45 1015.28 4474.07 1008.17 4474.07 1000.15C4474.07 992.132 4472.45 985.084 4469.22 979.006C4465.98 972.799 4461.59 968.015 4456.03 964.652C4450.47 961.161 4444.13 959.415 4437.02 959.415ZM4581.23 1044.18C4581.23 1045.73 4580.65 1047.09 4579.48 1048.25C4578.32 1049.42 4576.96 1050 4575.41 1050C4573.73 1050 4572.3 1049.42 4571.14 1048.25C4570.11 1047.09 4569.59 1045.73 4569.59 1044.18V912.28C4569.59 910.728 4570.17 909.37 4571.33 908.207C4572.5 907.043 4573.86 906.461 4575.41 906.461C4577.09 906.461 4578.45 907.043 4579.48 908.207C4580.65 909.37 4581.23 910.728 4581.23 912.28V1044.18ZM4684.19 949.135C4685.87 949.135 4687.23 949.716 4688.27 950.88C4689.43 952.044 4690.01 953.402 4690.01 954.954V1040.5C4690.01 1050.97 4687.94 1059.76 4683.8 1066.88C4679.67 1074.12 4674.11 1079.55 4667.12 1083.17C4660.14 1086.92 4652.19 1088.79 4643.26 1088.79C4637.7 1088.79 4632.53 1088.15 4627.75 1086.85C4623.09 1085.69 4619.28 1084.14 4616.3 1082.2C4614.75 1081.29 4613.59 1080.19 4612.81 1078.9C4612.03 1077.61 4611.97 1076.25 4612.62 1074.83C4613.26 1073.02 4614.23 1071.79 4615.53 1071.14C4616.95 1070.63 4618.37 1070.69 4619.79 1071.34C4621.99 1072.5 4625.16 1073.92 4629.3 1075.6C4633.44 1077.29 4638.16 1078.13 4643.46 1078.13C4650.57 1078.13 4656.71 1076.64 4661.88 1073.66C4667.19 1070.69 4671.26 1066.36 4674.11 1060.67C4676.95 1055.11 4678.37 1048.45 4678.37 1040.69V1026.72L4679.73 1031.38C4677.79 1035.39 4675.01 1038.94 4671.39 1042.05C4667.9 1045.15 4663.82 1047.61 4659.17 1049.42C4654.64 1051.1 4649.79 1051.94 4644.62 1051.94C4636.86 1051.94 4630.4 1050.39 4625.22 1047.28C4620.18 1044.05 4616.43 1039.65 4613.97 1034.09C4611.52 1028.53 4610.29 1022 4610.29 1014.5V954.954C4610.29 953.402 4610.81 952.044 4611.84 950.88C4612.87 949.716 4614.3 949.135 4616.11 949.135C4617.79 949.135 4619.15 949.716 4620.18 950.88C4621.34 952.044 4621.93 953.402 4621.93 954.954V1012.76C4621.93 1021.81 4623.87 1028.79 4627.75 1033.71C4631.75 1038.62 4638.22 1041.08 4647.14 1041.08C4652.7 1041.08 4657.81 1039.78 4662.47 1037.2C4667.12 1034.48 4670.94 1030.99 4673.91 1026.72C4676.89 1022.33 4678.37 1017.67 4678.37 1012.76V954.954C4678.37 953.402 4678.89 952.044 4679.92 950.88C4681.09 949.716 4682.51 949.135 4684.19 949.135ZM4726.35 1050C4724.54 1050 4723.12 1049.42 4722.09 1048.25C4721.05 1047.09 4720.53 1045.73 4720.53 1044.18V957.281C4720.53 955.73 4721.05 954.372 4722.09 953.208C4723.25 952.044 4724.67 951.462 4726.35 951.462C4728.03 951.462 4729.39 952.044 4730.43 953.208C4731.59 954.372 4732.17 955.73 4732.17 957.281V986.377L4729.26 986.959C4729.65 982.433 4730.75 977.972 4732.56 973.575C4734.5 969.049 4737.09 964.911 4740.32 961.161C4743.55 957.411 4747.37 954.372 4751.76 952.044C4756.29 949.717 4761.33 948.553 4766.89 948.553C4769.22 948.553 4771.48 949.07 4773.68 950.104C4775.88 951.01 4776.98 952.561 4776.98 954.76C4776.98 956.699 4776.46 958.187 4775.43 959.221C4774.39 960.256 4773.17 960.773 4771.74 960.773C4770.58 960.773 4769.29 960.45 4767.86 959.803C4766.57 959.156 4764.82 958.833 4762.63 958.833C4759.01 958.833 4755.38 959.932 4751.76 962.131C4748.14 964.2 4744.85 967.045 4741.87 970.665C4738.9 974.286 4736.5 978.36 4734.69 982.886C4733.01 987.282 4732.17 991.744 4732.17 996.27V1044.18C4732.17 1045.73 4731.59 1047.09 4730.43 1048.25C4729.26 1049.42 4727.91 1050 4726.35 1050ZM4806.42 1044.18C4806.42 1045.73 4805.84 1047.09 4804.67 1048.25C4803.51 1049.42 4802.15 1050 4800.6 1050C4798.92 1050 4797.5 1049.42 4796.33 1048.25C4795.3 1047.09 4794.78 1045.73 4794.78 1044.18V954.954C4794.78 953.402 4795.3 952.044 4796.33 950.88C4797.5 949.716 4798.92 949.135 4800.6 949.135C4802.28 949.135 4803.64 949.716 4804.67 950.88C4805.84 952.044 4806.42 953.402 4806.42 954.954V1044.18ZM4800.6 936.138C4797.88 936.138 4795.81 935.557 4794.39 934.393C4793.1 933.1 4792.45 931.289 4792.45 928.962V927.022C4792.45 924.694 4793.16 922.948 4794.59 921.785C4796.14 920.491 4798.21 919.845 4800.79 919.845C4803.25 919.845 4805.13 920.491 4806.42 921.785C4807.84 922.948 4808.55 924.694 4808.55 927.022V928.962C4808.55 931.289 4807.84 933.1 4806.42 934.393C4805.13 935.557 4803.19 936.138 4800.6 936.138ZM4880.3 948.553C4886.5 948.553 4892.19 949.264 4897.37 950.686C4902.54 951.98 4906.68 953.79 4909.78 956.118C4913.01 958.445 4914.63 960.967 4914.63 963.682C4914.63 964.976 4914.18 966.269 4913.27 967.562C4912.37 968.726 4911.14 969.308 4909.59 969.308C4908.03 969.308 4906.74 968.92 4905.71 968.144C4904.8 967.368 4903.83 966.463 4902.8 965.428C4901.89 964.394 4900.53 963.424 4898.72 962.519C4897.04 961.743 4894.65 961.032 4891.55 960.385C4888.44 959.738 4884.89 959.415 4880.88 959.415C4873.64 959.415 4867.11 961.226 4861.29 964.846C4855.47 968.467 4850.88 973.381 4847.51 979.588C4844.15 985.666 4842.47 992.52 4842.47 1000.15C4842.47 1007.91 4844.09 1014.89 4847.32 1021.1C4850.55 1027.31 4855.01 1032.22 4860.7 1035.84C4866.39 1039.33 4873.05 1041.08 4880.68 1041.08C4885.86 1041.08 4889.87 1040.62 4892.71 1039.72C4895.55 1038.81 4898.01 1037.78 4900.08 1036.62C4902.54 1035.19 4904.28 1033.84 4905.32 1032.54C4906.48 1031.12 4907.97 1030.41 4909.78 1030.41C4911.46 1030.41 4912.69 1030.93 4913.47 1031.96C4914.37 1032.87 4914.82 1034.09 4914.82 1035.65C4914.82 1037.72 4913.27 1040.04 4910.17 1042.63C4907.19 1045.09 4903.06 1047.28 4897.75 1049.22C4892.45 1051.03 4886.37 1051.94 4879.52 1051.94C4869.82 1051.94 4861.29 1049.68 4853.92 1045.15C4846.67 1040.62 4840.98 1034.48 4836.85 1026.72C4832.84 1018.84 4830.83 1009.98 4830.83 1000.15C4830.83 990.709 4832.9 982.11 4837.04 974.351C4841.18 966.592 4846.93 960.385 4854.3 955.73C4861.8 950.945 4870.47 948.553 4880.3 948.553ZM4931.42 1034.29C4930.39 1032.74 4929.87 1031.25 4929.87 1029.83C4930 1028.28 4930.84 1027.05 4932.39 1026.14C4933.43 1025.24 4934.59 1024.85 4935.88 1024.98C4937.31 1025.11 4938.6 1025.75 4939.76 1026.92C4943.26 1031.44 4947.46 1035.13 4952.37 1037.97C4957.41 1040.69 4963.36 1042.05 4970.22 1042.05C4973.84 1042.05 4977.39 1041.47 4980.89 1040.3C4984.51 1039.01 4987.48 1037.13 4989.81 1034.68C4992.14 1032.09 4993.3 1028.86 4993.3 1024.98C4993.3 1020.97 4992.14 1017.74 4989.81 1015.28C4987.48 1012.82 4984.44 1010.88 4980.69 1009.46C4977.07 1008.04 4973.19 1006.81 4969.05 1005.77C4964.66 1004.61 4960.39 1003.32 4956.25 1001.89C4952.11 1000.34 4948.43 998.468 4945.19 996.27C4942.09 993.942 4939.57 991.162 4937.63 987.929C4935.69 984.696 4934.72 980.752 4934.72 976.097C4934.72 970.665 4936.21 965.881 4939.18 961.743C4942.16 957.605 4946.16 954.372 4951.21 952.044C4956.38 949.717 4962.2 948.553 4968.67 948.553C4971.9 948.553 4975.39 949.005 4979.14 949.91C4982.89 950.686 4986.58 952.044 4990.2 953.984C4993.82 955.924 4997.05 958.575 4999.89 961.937C5001.06 963.101 5001.64 964.458 5001.64 966.01C5001.64 967.433 5000.99 968.726 4999.7 969.89C4998.67 970.665 4997.44 971.053 4996.02 971.053C4994.72 971.053 4993.62 970.536 4992.72 969.502C4989.61 966.01 4985.93 963.359 4981.66 961.549C4977.39 959.738 4972.8 958.833 4967.89 958.833C4964.14 958.833 4960.58 959.48 4957.22 960.773C4953.99 961.937 4951.27 963.747 4949.07 966.204C4946.88 968.661 4945.78 971.894 4945.78 975.903C4946.04 979.653 4947.33 982.692 4949.66 985.019C4952.11 987.347 4955.28 989.287 4959.16 990.839C4963.17 992.39 4967.63 993.813 4972.54 995.106C4976.68 996.14 4980.63 997.369 4984.38 998.791C4988.26 1000.21 4991.62 1002.02 4994.46 1004.22C4997.44 1006.29 4999.77 1008.94 5001.45 1012.18C5003.26 1015.41 5004.16 1019.48 5004.16 1024.4C5004.16 1030.09 5002.55 1035 4999.31 1039.14C4996.21 1043.28 4992.01 1046.44 4986.7 1048.64C4981.4 1050.84 4975.52 1051.94 4969.05 1051.94C4962.07 1051.94 4955.28 1050.58 4948.69 1047.87C4942.22 1045.15 4936.47 1040.62 4931.42 1034.29ZM5029.52 1050C5027.33 1050 5025.64 1049.29 5024.48 1047.87C5023.32 1046.44 5022.73 1044.63 5022.73 1042.44V1038.36C5022.73 1036.03 5023.32 1034.22 5024.48 1032.93C5025.64 1031.64 5027.33 1030.99 5029.52 1030.99H5030.88C5033.08 1030.99 5034.76 1031.64 5035.93 1032.93C5037.09 1034.22 5037.67 1036.03 5037.67 1038.36V1042.44C5037.67 1044.63 5037.09 1046.44 5035.93 1047.87C5034.76 1049.29 5033.08 1050 5030.88 1050H5029.52Z" fill="#FF6347"/>
</svg>
