<svg width="7009" height="1375" viewBox="0 0 7009 1375" fill="none" xmlns="http://www.w3.org/2000/svg">
<path d="M651.029 214.444C657.271 214.444 662.552 216.364 666.873 220.205C671.674 223.566 674.075 228.847 674.075 236.049C674.075 238.45 673.595 241.57 672.634 245.411L513.478 706.317C512.037 710.638 509.397 713.999 505.556 716.399C501.715 718.8 497.874 720 494.033 720C489.232 720 484.911 719.04 481.07 717.119C477.229 714.719 474.349 711.118 472.428 706.317L344.959 390.885L350.72 392.325L223.251 706.317C221.331 711.118 218.21 714.719 213.889 717.119C210.048 719.04 205.967 720 201.646 720C197.805 720 193.964 718.8 190.124 716.399C186.763 713.999 184.362 710.638 182.922 706.317L23.7655 245.411C22.3251 241.57 21.605 238.69 21.605 236.769C21.605 229.568 24.2456 224.046 29.5268 220.205C34.808 216.364 40.0892 214.444 45.3704 214.444C50.1715 214.444 54.4925 215.644 58.3334 218.045C62.1743 220.445 64.8149 223.806 66.2552 228.127L211.008 650.144L203.087 650.864L328.395 338.312C329.836 333.991 332.236 330.631 335.597 328.23C339.438 325.349 343.759 324.149 348.56 324.629C353.361 324.149 357.442 325.349 360.803 328.23C364.644 330.631 367.524 333.991 369.445 338.312L493.313 649.424L485.391 652.304L629.424 228.127C630.865 223.806 633.505 220.445 637.346 218.045C641.187 215.644 645.748 214.444 651.029 214.444ZM786.291 215.884C792.052 215.884 797.093 218.045 801.414 222.366C806.216 226.687 808.616 231.968 808.616 238.209V697.675C808.136 703.916 805.495 709.198 800.694 713.519C796.373 717.84 791.332 720 785.571 720C778.849 720 773.328 717.84 769.007 713.519C765.166 709.198 763.246 703.916 763.246 697.675V238.209C763.246 231.968 765.406 226.687 769.727 222.366C774.048 218.045 779.569 215.884 786.291 215.884ZM1124.05 215.884C1130.77 215.884 1136.05 218.045 1139.89 222.366C1144.21 226.687 1146.37 231.968 1146.37 238.209V697.675C1145.89 703.916 1143.49 709.198 1139.17 713.519C1135.33 717.84 1130.05 720 1123.33 720C1117.09 720 1111.81 717.84 1107.48 713.519C1103.16 709.198 1101 703.916 1101 697.675V238.209C1101 231.968 1103.16 226.687 1107.48 222.366C1112.29 218.045 1117.81 215.884 1124.05 215.884ZM782.69 441.296H1124.77L1124.05 483.066H779.809L782.69 441.296ZM1450.09 271.337L1275.09 706.317C1273.17 711.118 1270.53 714.719 1267.16 717.119C1263.8 719.52 1259.96 720.72 1255.64 720.72C1248.92 720.72 1243.88 719.04 1240.52 715.679C1237.16 711.838 1235.24 707.277 1234.76 701.996C1234.28 699.595 1234.52 696.715 1235.48 693.354L1425.6 228.127C1428 222.846 1430.88 219.245 1434.24 217.325C1438.08 214.924 1442.4 213.724 1447.21 213.724C1452.01 213.724 1456.09 215.164 1459.45 218.045C1463.29 220.445 1466.17 223.806 1468.09 228.127L1657.49 691.193C1658.45 694.074 1658.93 696.955 1658.93 699.835C1658.93 706.557 1656.77 711.838 1652.45 715.679C1648.13 719.04 1643.09 720.72 1637.33 720.72C1632.53 720.72 1628.21 719.52 1624.37 717.119C1621.01 714.239 1618.36 710.638 1616.44 706.317L1437.12 268.456L1450.09 271.337ZM1316.86 574.527L1334.86 532.037H1558.11L1566.75 574.527H1316.86ZM1861.77 720C1855.05 720 1849.53 717.84 1845.21 713.519C1841.37 709.198 1839.45 704.156 1839.45 698.395V239.65H1884.1V698.395C1884.1 704.156 1881.94 709.198 1877.62 713.519C1873.3 717.84 1868.01 720 1861.77 720ZM1690.37 256.934C1684.61 256.934 1679.57 255.013 1675.25 251.172C1670.93 247.332 1668.77 242.29 1668.77 236.049C1668.77 230.288 1670.93 225.487 1675.25 221.646C1679.57 217.805 1684.61 215.884 1690.37 215.884H2033.17C2038.93 215.884 2043.98 217.805 2048.3 221.646C2052.62 225.487 2054.78 230.528 2054.78 236.769C2054.78 243.011 2052.62 248.052 2048.3 251.893C2043.98 255.253 2038.93 256.934 2033.17 256.934H1690.37ZM2186.22 262.695C2186.22 275.658 2182.38 288.381 2174.7 300.864C2167.01 312.867 2157.65 322.949 2146.61 331.111C2136.05 338.793 2125.24 342.633 2114.2 342.633C2110.36 342.633 2106.76 341.433 2103.4 339.033C2100.04 336.632 2098.36 332.311 2098.36 326.07C2098.36 319.348 2100.52 315.507 2104.84 314.547C2109.16 313.587 2114.92 311.426 2122.12 308.066C2129.81 303.745 2135.81 298.703 2140.13 292.942C2144.45 287.181 2146.61 280.459 2146.61 272.777C2146.61 266.536 2144.69 261.735 2140.85 258.374C2137.49 255.013 2133.41 253.333 2128.61 253.333C2125.24 253.333 2121.88 254.053 2118.52 255.493C2115.16 256.454 2112.28 257.894 2109.88 259.814C2107 257.414 2104.6 254.773 2102.68 251.893C2101.24 248.532 2100.52 244.691 2100.52 240.37C2101.48 232.208 2106.04 225.247 2114.2 219.485C2122.36 213.724 2131.49 210.843 2141.57 210.843C2154.53 210.843 2165.09 216.124 2173.26 226.687C2181.9 236.769 2186.22 248.772 2186.22 262.695ZM2425.56 727.202C2389.07 727.682 2357.38 721.92 2330.49 709.918C2303.61 697.915 2277.92 679.911 2253.44 655.905C2251.04 653.985 2248.88 651.584 2246.95 648.704C2245.51 645.823 2244.79 642.462 2244.79 638.621C2244.79 632.86 2246.95 627.579 2251.28 622.778C2256.08 617.977 2261.36 615.576 2267.12 615.576C2272.88 615.576 2278.16 617.977 2282.96 622.778C2301.69 642.942 2322.81 658.306 2346.34 668.868C2370.34 679.431 2396.03 684.712 2423.4 684.712C2446.44 684.712 2466.85 681.111 2484.61 673.909C2502.85 666.708 2517.26 656.385 2527.82 642.942C2538.38 629.499 2543.66 613.896 2543.66 596.132C2543.66 574.047 2537.66 556.282 2525.66 542.839C2513.66 528.916 2497.81 517.634 2478.13 508.992C2458.44 499.87 2436.6 491.708 2412.59 484.506C2392.91 478.745 2374.18 472.263 2356.42 465.062C2338.66 457.38 2322.81 448.258 2308.89 437.695C2294.97 426.653 2284.16 413.21 2276.48 397.366C2268.8 381.522 2264.96 362.318 2264.96 339.753C2264.96 314.307 2271.68 291.742 2285.12 272.057C2298.57 252.373 2317.53 237.009 2342.02 225.967C2366.98 214.444 2395.79 208.683 2428.44 208.683C2456.76 208.683 2483.89 213.484 2509.82 223.086C2536.22 232.688 2557.11 246.851 2572.47 265.576C2579.67 273.258 2583.27 280.219 2583.27 286.461C2583.27 291.262 2580.87 296.063 2576.07 300.864C2571.27 305.665 2565.99 308.066 2560.23 308.066C2555.43 308.066 2551.34 306.385 2547.98 303.024C2539.82 292.942 2529.5 284.06 2517.02 276.378C2504.53 268.216 2490.61 261.975 2475.25 257.654C2460.36 253.333 2444.76 251.172 2428.44 251.172C2405.87 251.172 2385.47 254.773 2367.22 261.975C2349.46 268.696 2335.3 278.539 2324.73 291.502C2314.65 304.465 2309.61 320.068 2309.61 338.312C2309.61 358.477 2315.37 375.041 2326.89 388.004C2338.42 400.967 2353.54 411.769 2372.26 420.411C2390.99 428.573 2410.91 436.255 2432.04 443.457C2452.68 449.218 2472.37 455.939 2491.09 463.621C2510.3 470.823 2527.1 479.945 2541.5 490.987C2556.39 502.03 2567.91 515.953 2576.07 532.757C2584.71 549.561 2589.03 570.686 2589.03 596.132C2589.03 620.617 2582.07 642.702 2568.15 662.387C2554.23 682.071 2535.02 697.675 2510.54 709.198C2486.53 720.72 2458.2 726.722 2425.56 727.202ZM3037.67 720C3030.95 720 3025.43 717.84 3021.1 713.519C3017.26 709.198 3015.34 704.156 3015.34 698.395V239.65H3059.99V698.395C3059.99 704.156 3057.83 709.198 3053.51 713.519C3049.19 717.84 3043.91 720 3037.67 720ZM2866.27 256.934C2860.51 256.934 2855.47 255.013 2851.15 251.172C2846.82 247.332 2844.66 242.29 2844.66 236.049C2844.66 230.288 2846.82 225.487 2851.15 221.646C2855.47 217.805 2860.51 215.884 2866.27 215.884H3209.07C3214.83 215.884 3219.87 217.805 3224.19 221.646C3228.51 225.487 3230.67 230.528 3230.67 236.769C3230.67 243.011 3228.51 248.052 3224.19 251.893C3219.87 255.253 3214.83 256.934 3209.07 256.934H2866.27ZM3345.55 215.884C3351.31 215.884 3356.35 218.045 3360.67 222.366C3365.47 226.687 3367.88 231.968 3367.88 238.209V697.675C3367.39 703.916 3364.75 709.198 3359.95 713.519C3355.63 717.84 3350.59 720 3344.83 720C3338.11 720 3332.59 717.84 3328.27 713.519C3324.43 709.198 3322.5 703.916 3322.5 697.675V238.209C3322.5 231.968 3324.67 226.687 3328.99 222.366C3333.31 218.045 3338.83 215.884 3345.55 215.884ZM3683.31 215.884C3690.03 215.884 3695.31 218.045 3699.15 222.366C3703.47 226.687 3705.63 231.968 3705.63 238.209V697.675C3705.15 703.916 3702.75 709.198 3698.43 713.519C3694.59 717.84 3689.31 720 3682.59 720C3676.35 720 3671.06 717.84 3666.74 713.519C3662.42 709.198 3660.26 703.916 3660.26 697.675V238.209C3660.26 231.968 3662.42 226.687 3666.74 222.366C3671.54 218.045 3677.07 215.884 3683.31 215.884ZM3341.95 441.296H3684.03L3683.31 483.066H3339.07L3341.95 441.296ZM3862.43 215.884H4126.73C4132.49 215.884 4137.53 218.045 4141.86 222.366C4146.18 226.207 4148.34 231.248 4148.34 237.489C4148.34 243.731 4146.18 248.772 4141.86 252.613C4137.53 256.454 4132.49 258.374 4126.73 258.374H3879L3886.2 246.131V448.498L3878.28 439.136H4094.32C4100.09 439.136 4105.13 441.296 4109.45 445.617C4113.77 449.938 4115.93 454.979 4115.93 460.741C4115.93 466.982 4113.77 472.023 4109.45 475.864C4105.13 479.705 4100.09 481.625 4094.32 481.625H3879.72L3886.2 474.424V681.831L3882.6 677.51H4126.73C4132.49 677.51 4137.53 679.671 4141.86 683.992C4146.18 688.313 4148.34 693.354 4148.34 699.115C4148.34 705.357 4146.18 710.398 4141.86 714.239C4137.53 718.08 4132.49 720 4126.73 720H3862.43C3856.67 720 3851.63 717.84 3847.31 713.519C3842.99 709.198 3840.83 704.156 3840.83 698.395V237.489C3840.83 231.728 3842.99 226.687 3847.31 222.366C3851.63 218.045 3856.67 215.884 3862.43 215.884ZM4725.76 677.51C4731.52 677.51 4736.57 679.671 4740.89 683.992C4745.21 687.833 4747.37 692.634 4747.37 698.395C4747.37 704.636 4745.21 709.918 4740.89 714.239C4736.57 718.08 4731.52 720 4725.76 720H4468.66C4462.42 720 4457.14 717.84 4452.82 713.519C4448.98 709.198 4447.06 704.156 4447.06 698.395V237.489C4447.06 231.728 4449.22 226.687 4453.54 222.366C4457.86 218.045 4463.38 215.884 4470.1 215.884C4475.87 215.884 4480.91 218.045 4485.23 222.366C4490.03 226.687 4492.43 231.728 4492.43 237.489V689.753L4478.75 677.51H4725.76ZM5087.76 213.004C5094 213.004 5099.04 215.404 5102.88 220.205C5107.2 224.526 5109.36 229.327 5109.36 234.609C5109.36 237.009 5108.88 239.41 5107.92 241.81C5107.44 243.731 5106.48 245.891 5105.04 248.292L4935.8 480.905L4944.45 452.819V698.395C4944.45 704.156 4942.29 709.198 4937.96 713.519C4933.64 717.84 4928.36 720 4922.12 720C4915.88 720 4910.6 717.84 4906.28 713.519C4902.44 709.198 4900.52 704.156 4900.52 698.395V457.86L4904.12 475.144L4739.2 249.732C4737.28 247.332 4735.84 244.931 4734.88 242.53C4733.92 239.65 4733.44 237.009 4733.44 234.609C4733.44 228.367 4735.84 223.326 4740.64 219.485C4745.92 215.164 4751.2 213.004 4756.48 213.004C4763.68 213.004 4769.69 216.364 4774.49 223.086L4929.32 434.094L4918.52 432.654L5069.03 223.086C5073.84 216.364 5080.08 213.004 5087.76 213.004ZM5214.22 720C5207.01 720 5201.01 717.84 5196.21 713.519C5191.89 709.198 5189.73 704.156 5189.73 698.395V237.489C5189.73 231.728 5191.89 226.687 5196.21 222.366C5200.53 218.045 5205.57 215.884 5211.33 215.884H5405.78C5433.15 215.884 5457.63 221.886 5479.24 233.889C5500.84 245.411 5517.64 261.495 5529.65 282.14C5542.13 302.784 5548.37 326.07 5548.37 351.996C5548.37 373.12 5544.53 392.565 5536.85 410.329C5529.17 428.093 5518.37 443.217 5504.44 455.699C5490.52 467.702 5474.92 476.584 5457.63 482.345L5432.43 474.424C5450.19 475.864 5466.75 481.625 5482.12 491.708C5497.48 501.31 5509.72 514.753 5518.85 532.037C5528.45 548.841 5533.49 569.245 5533.97 593.251C5534.45 613.896 5535.41 629.979 5536.85 641.502C5538.77 653.025 5541.41 661.667 5544.77 667.428C5548.13 673.189 5552.45 677.75 5557.73 681.111C5562.54 683.992 5565.66 688.073 5567.1 693.354C5569.02 698.635 5568.54 703.676 5565.66 708.477C5563.74 712.318 5560.85 715.199 5557.01 717.119C5553.65 718.56 5550.05 719.28 5546.21 719.28C5542.37 719.28 5538.53 718.32 5534.69 716.399C5527.97 712.558 5521.01 706.557 5513.8 698.395C5507.08 690.233 5501.32 678.23 5496.52 662.387C5492.2 646.543 5490.04 624.458 5490.04 596.132C5490.04 577.407 5486.92 562.044 5480.68 550.041C5474.92 538.038 5467.23 528.916 5457.63 522.675C5448.51 515.953 5438.19 511.392 5426.66 508.992C5415.62 506.111 5405.06 504.671 5394.98 504.671H5227.18L5235.1 494.588V698.395C5235.1 704.156 5233.18 709.198 5229.34 713.519C5225.5 717.84 5220.46 720 5214.22 720ZM5227.18 465.062H5407.94C5424.26 463.621 5439.63 458.34 5454.03 449.218C5468.43 439.616 5479.96 426.653 5488.6 410.329C5497.72 394.005 5502.28 375.041 5502.28 353.436C5502.28 326.07 5492.92 303.504 5474.19 285.74C5455.95 267.496 5431.95 258.374 5402.18 258.374H5230.06L5235.1 248.292V475.144L5227.18 465.062ZM5717.55 697.675C5717.07 703.916 5714.43 709.198 5709.63 713.519C5705.31 717.84 5700.27 720 5694.51 720C5687.79 720 5682.27 717.84 5677.95 713.519C5674.1 709.198 5672.18 703.916 5672.18 697.675V238.209C5672.18 231.968 5674.34 226.687 5678.67 222.366C5682.99 218.045 5688.51 215.884 5695.23 215.884C5700.99 215.884 5706.03 218.045 5710.35 222.366C5715.15 226.687 5717.55 231.968 5717.55 238.209V697.675ZM6220.23 253.333C6225.99 257.174 6229.35 262.215 6230.31 268.456C6231.27 274.218 6229.83 279.979 6225.99 285.74C6222.63 290.061 6218.31 292.462 6213.03 292.942C6207.75 293.422 6202.71 292.462 6197.9 290.061C6179.66 278.059 6159.98 268.696 6138.85 261.975C6118.21 255.253 6095.88 251.893 6071.88 251.893C6042.59 251.893 6015.22 257.174 5989.78 267.736C5964.81 277.819 5942.97 292.702 5924.24 312.386C5905.52 331.591 5890.87 354.396 5880.31 380.802C5870.23 407.208 5865.19 436.255 5865.19 467.942C5865.19 500.59 5870.47 530.357 5881.03 557.243C5891.59 583.649 5906.24 606.454 5924.96 625.658C5944.17 644.863 5966.25 659.506 5991.22 669.588C6016.18 679.671 6043.07 684.712 6071.88 684.712C6095.4 684.712 6117.49 681.351 6138.13 674.63C6159.26 667.908 6178.94 658.786 6197.18 647.263C6201.99 644.383 6207.03 643.422 6212.31 644.383C6218.07 644.863 6222.63 647.503 6225.99 652.304C6230.31 657.586 6231.75 663.347 6230.31 669.588C6229.35 675.35 6226.23 679.911 6220.95 683.272C6208.95 690.953 6194.78 698.155 6178.46 704.877C6162.14 711.598 6144.85 716.879 6126.61 720.72C6108.36 725.041 6090.12 727.202 6071.88 727.202C6037.31 727.202 6004.9 720.96 5974.65 708.477C5944.41 695.994 5917.52 678.47 5893.99 655.905C5870.47 632.86 5851.99 605.494 5838.54 573.806C5825.58 542.119 5819.1 506.831 5819.1 467.942C5819.1 430.494 5825.58 396.166 5838.54 364.959C5851.51 333.271 5869.51 305.905 5892.55 282.86C5915.6 259.814 5942.49 241.81 5973.21 228.847C6003.94 215.884 6036.83 209.403 6071.88 209.403C6099.24 209.403 6125.65 213.244 6151.09 220.926C6176.54 228.607 6199.58 239.41 6220.23 253.333ZM6461.72 727.202C6425.23 727.682 6393.54 721.92 6366.65 709.918C6339.77 697.915 6314.08 679.911 6289.6 655.905C6287.2 653.985 6285.04 651.584 6283.11 648.704C6281.67 645.823 6280.95 642.462 6280.95 638.621C6280.95 632.86 6283.11 627.579 6287.44 622.778C6292.24 617.977 6297.52 615.576 6303.28 615.576C6309.04 615.576 6314.32 617.977 6319.12 622.778C6337.85 642.942 6358.97 658.306 6382.5 668.868C6406.5 679.431 6432.19 684.712 6459.56 684.712C6482.6 684.712 6503.01 681.111 6520.77 673.909C6539.01 666.708 6553.42 656.385 6563.98 642.942C6574.54 629.499 6579.82 613.896 6579.82 596.132C6579.82 574.047 6573.82 556.282 6561.82 542.839C6549.82 528.916 6533.97 517.634 6514.29 508.992C6494.6 499.87 6472.76 491.708 6448.75 484.506C6429.07 478.745 6410.34 472.263 6392.58 465.062C6374.82 457.38 6358.97 448.258 6345.05 437.695C6331.13 426.653 6320.32 413.21 6312.64 397.366C6304.96 381.522 6301.12 362.318 6301.12 339.753C6301.12 314.307 6307.84 291.742 6321.28 272.057C6334.73 252.373 6353.69 237.009 6378.18 225.967C6403.14 214.444 6431.95 208.683 6464.6 208.683C6492.92 208.683 6520.05 213.484 6545.98 223.086C6572.38 232.688 6593.27 246.851 6608.63 265.576C6615.83 273.258 6619.43 280.219 6619.43 286.461C6619.43 291.262 6617.03 296.063 6612.23 300.864C6607.43 305.665 6602.15 308.066 6596.39 308.066C6591.59 308.066 6587.5 306.385 6584.14 303.024C6575.98 292.942 6565.66 284.06 6553.18 276.378C6540.69 268.216 6526.77 261.975 6511.41 257.654C6496.52 253.333 6480.92 251.172 6464.6 251.172C6442.03 251.172 6421.63 254.773 6403.38 261.975C6385.62 268.696 6371.46 278.539 6360.89 291.502C6350.81 304.465 6345.77 320.068 6345.77 338.312C6345.77 358.477 6351.53 375.041 6363.05 388.004C6374.58 400.967 6389.7 411.769 6408.42 420.411C6427.15 428.573 6447.07 436.255 6468.2 443.457C6488.84 449.218 6508.53 455.939 6527.25 463.621C6546.46 470.823 6563.26 479.945 6577.66 490.987C6592.55 502.03 6604.07 515.953 6612.23 532.757C6620.87 549.561 6625.19 570.686 6625.19 596.132C6625.19 620.617 6618.23 642.702 6604.31 662.387C6590.39 682.071 6571.18 697.675 6546.7 709.198C6522.69 720.72 6494.36 726.722 6461.72 727.202ZM6804.17 478.024C6804.17 471.783 6806.33 466.502 6810.65 462.181C6814.97 457.86 6820.01 455.699 6825.78 455.699C6847.86 454.259 6867.55 448.738 6884.83 439.136C6902.11 429.533 6915.8 416.57 6925.88 400.247C6935.96 383.923 6941 364.959 6941 343.354C6941 320.788 6936.2 301.344 6926.6 285.02C6917.48 268.216 6904.99 255.253 6889.15 246.131C6873.31 236.529 6855.3 231.728 6835.14 231.728C6815.45 231.728 6796.97 236.289 6779.69 245.411C6762.4 254.533 6748 266.536 6736.48 281.419C6732.63 285.26 6728.07 288.141 6722.79 290.061C6717.99 291.502 6712.71 290.301 6706.95 286.461C6701.19 282.62 6697.83 277.819 6696.87 272.057C6695.91 265.816 6697.59 260.054 6701.91 254.773C6717.27 235.569 6736.72 219.965 6760.24 207.963C6783.77 195.96 6808.73 189.958 6835.14 189.958C6862.98 189.958 6888.19 196.2 6910.76 208.683C6933.8 221.166 6952.05 238.93 6965.49 261.975C6978.93 285.02 6985.65 312.146 6985.65 343.354C6985.65 362.558 6981.81 381.042 6974.13 398.806C6966.45 416.57 6955.89 432.414 6942.44 446.337C6929 460.26 6913.4 471.303 6895.63 479.465C6877.87 487.627 6858.66 492.188 6838.02 493.148C6836.58 493.148 6837.06 492.908 6839.46 492.428C6841.86 491.948 6844.26 490.507 6846.66 488.107V563.724C6846.66 569.966 6844.5 575.247 6840.18 579.568C6836.34 583.409 6831.3 585.329 6825.06 585.329C6818.81 585.329 6813.53 583.409 6809.21 579.568C6805.37 575.247 6803.69 569.966 6804.17 563.724V478.024ZM6825.78 720C6817.61 720 6811.13 717.599 6806.33 712.798C6802.01 707.517 6799.85 700.796 6799.85 692.634V676.79C6799.85 668.148 6802.01 661.427 6806.33 656.625C6811.13 651.824 6817.61 649.424 6825.78 649.424H6830.1C6838.74 649.424 6844.98 651.824 6848.82 656.625C6853.14 661.427 6855.3 668.148 6855.3 676.79V692.634C6855.3 700.796 6853.14 707.517 6848.82 712.798C6844.98 717.599 6838.74 720 6830.1 720H6825.78Z" fill="#DBDADA"/>
<path d="M641.609 1257.6C644.646 1257.6 647.303 1258.74 649.581 1261.02C651.859 1263.04 652.998 1265.57 652.998 1268.61C652.998 1271.9 651.859 1274.68 649.581 1276.96C647.303 1278.99 644.646 1280 641.609 1280H506.076C502.786 1280 500.002 1278.86 497.724 1276.58C495.699 1274.31 494.687 1271.65 494.687 1268.61V1025.64C494.687 1022.6 495.825 1019.94 498.103 1017.67C500.381 1015.39 503.292 1014.25 506.835 1014.25C509.872 1014.25 512.53 1015.39 514.808 1017.67C517.339 1019.94 518.604 1022.6 518.604 1025.64V1264.05L511.391 1257.6H641.609ZM871.759 1182.81C871.759 1202.05 867.583 1219.38 859.231 1234.82C850.878 1250.01 839.489 1262.03 825.063 1270.89C810.636 1279.49 794.185 1283.8 775.709 1283.8C757.739 1283.8 741.414 1279.49 726.735 1270.89C712.308 1262.03 700.793 1250.01 692.187 1234.82C683.835 1219.38 679.659 1202.05 679.659 1182.81C679.659 1163.32 683.835 1145.99 692.187 1130.8C700.793 1115.61 712.308 1103.59 726.735 1094.73C741.414 1085.88 757.739 1081.45 775.709 1081.45C794.185 1081.45 810.636 1085.88 825.063 1094.73C839.489 1103.59 850.878 1115.61 859.231 1130.8C867.583 1145.99 871.759 1163.32 871.759 1182.81ZM848.98 1182.81C848.98 1167.37 845.817 1153.71 839.489 1141.81C833.162 1129.66 824.43 1120.17 813.294 1113.34C802.411 1106.25 789.882 1102.71 775.709 1102.71C762.042 1102.71 749.64 1106.25 738.504 1113.34C727.368 1120.17 718.509 1129.66 711.929 1141.81C705.601 1153.71 702.438 1167.37 702.438 1182.81C702.438 1198.25 705.601 1211.92 711.929 1223.81C718.509 1235.71 727.368 1245.2 738.504 1252.29C749.64 1259.12 762.042 1262.54 775.709 1262.54C789.882 1262.54 802.411 1259.12 813.294 1252.29C824.43 1245.2 833.162 1235.71 839.489 1223.81C845.817 1211.92 848.98 1198.25 848.98 1182.81ZM1100.88 1182.81C1100.88 1202.05 1096.7 1219.38 1088.35 1234.82C1080 1250.01 1068.61 1262.03 1054.18 1270.89C1039.76 1279.49 1023.31 1283.8 1004.83 1283.8C986.86 1283.8 970.535 1279.49 955.856 1270.89C941.429 1262.03 929.914 1250.01 921.308 1234.82C912.956 1219.38 908.78 1202.05 908.78 1182.81C908.78 1163.32 912.956 1145.99 921.308 1130.8C929.914 1115.61 941.429 1103.59 955.856 1094.73C970.535 1085.88 986.86 1081.45 1004.83 1081.45C1023.31 1081.45 1039.76 1085.88 1054.18 1094.73C1068.61 1103.59 1080 1115.61 1088.35 1130.8C1096.7 1145.99 1100.88 1163.32 1100.88 1182.81ZM1078.1 1182.81C1078.1 1167.37 1074.94 1153.71 1068.61 1141.81C1062.28 1129.66 1053.55 1120.17 1042.41 1113.34C1031.53 1106.25 1019 1102.71 1004.83 1102.71C991.163 1102.71 978.761 1106.25 967.625 1113.34C956.489 1120.17 947.63 1129.66 941.05 1141.81C934.722 1153.71 931.559 1167.37 931.559 1182.81C931.559 1198.25 934.722 1211.92 941.05 1223.81C947.63 1235.71 956.489 1245.2 967.625 1252.29C978.761 1259.12 991.163 1262.54 1004.83 1262.54C1019 1262.54 1031.53 1259.12 1042.41 1252.29C1053.55 1245.2 1062.28 1235.71 1068.61 1223.81C1074.94 1211.92 1078.1 1198.25 1078.1 1182.81ZM1162.96 1280C1159.67 1280 1156.88 1278.86 1154.61 1276.58C1152.58 1274.31 1151.57 1271.65 1151.57 1268.61V1010.45C1151.57 1007.42 1152.58 1004.76 1154.61 1002.48C1156.88 1000.2 1159.67 999.064 1162.96 999.064C1166.25 999.064 1168.91 1000.2 1170.93 1002.48C1173.21 1004.76 1174.35 1007.42 1174.35 1010.45V1268.61C1174.35 1271.65 1173.21 1274.31 1170.93 1276.58C1168.91 1278.86 1166.25 1280 1162.96 1280ZM1292.04 1085.24C1294.82 1085.24 1297.35 1086.51 1299.63 1089.04C1301.91 1091.32 1303.05 1093.85 1303.05 1096.63C1303.05 1099.92 1301.65 1102.83 1298.87 1105.36L1171.31 1213.94L1170.17 1186.99L1284.06 1089.04C1286.34 1086.51 1289 1085.24 1292.04 1085.24ZM1295.07 1280C1291.78 1280 1289 1278.61 1286.72 1275.82L1200.16 1183.95L1217.25 1168.38L1303.05 1259.88C1305.32 1262.41 1306.46 1265.32 1306.46 1268.61C1306.46 1272.15 1305.07 1274.94 1302.29 1276.96C1299.5 1278.99 1297.1 1280 1295.07 1280ZM1601.29 1087.14C1604.58 1087.14 1607.24 1088.28 1609.26 1090.56C1611.54 1092.84 1612.68 1095.49 1612.68 1098.53V1205.59C1612.68 1230.65 1605.59 1249.76 1591.42 1262.92C1577.25 1276.08 1558.14 1282.66 1534.09 1282.66C1510.3 1282.66 1491.32 1276.08 1477.15 1262.92C1463.23 1249.76 1456.27 1230.65 1456.27 1205.59V1098.53C1456.27 1095.49 1457.28 1092.84 1459.31 1090.56C1461.58 1088.28 1464.37 1087.14 1467.66 1087.14C1470.95 1087.14 1473.61 1088.28 1475.63 1090.56C1477.91 1092.84 1479.05 1095.49 1479.05 1098.53V1205.59C1479.05 1223.81 1483.86 1237.73 1493.47 1247.35C1503.34 1256.72 1516.88 1261.4 1534.09 1261.4C1551.56 1261.4 1565.23 1256.72 1575.1 1247.35C1584.97 1237.73 1589.9 1223.81 1589.9 1205.59V1098.53C1589.9 1095.49 1590.92 1092.84 1592.94 1090.56C1594.96 1088.28 1597.75 1087.14 1601.29 1087.14ZM1764.67 1084.48C1781.88 1084.48 1797.06 1088.79 1810.22 1097.39C1823.64 1105.74 1834.27 1117.39 1842.11 1132.32C1849.96 1147 1853.88 1163.96 1853.88 1183.19C1853.88 1202.43 1849.96 1219.51 1842.11 1234.44C1834.27 1249.38 1823.64 1261.14 1810.22 1269.75C1796.81 1278.35 1781.75 1282.66 1765.05 1282.66C1756.19 1282.66 1747.71 1281.39 1739.61 1278.86C1731.76 1276.08 1724.55 1272.41 1717.97 1267.85C1711.39 1263.3 1705.57 1257.98 1700.51 1251.91C1695.44 1245.58 1691.4 1238.75 1688.36 1231.41L1695.19 1226.47V1344.54C1695.19 1347.58 1694.05 1350.23 1691.77 1352.51C1689.75 1354.79 1687.09 1355.93 1683.8 1355.93C1680.51 1355.93 1677.73 1354.79 1675.45 1352.51C1673.43 1350.23 1672.41 1347.58 1672.41 1344.54V1097.01C1672.41 1093.72 1673.43 1090.94 1675.45 1088.66C1677.47 1086.38 1680.26 1085.24 1683.8 1085.24C1687.09 1085.24 1689.75 1086.38 1691.77 1088.66C1694.05 1090.94 1695.19 1093.72 1695.19 1097.01V1138.01L1689.88 1134.98C1692.41 1127.13 1696.08 1120.17 1700.89 1114.1C1705.95 1107.77 1711.77 1102.45 1718.35 1098.15C1724.93 1093.59 1732.14 1090.18 1739.99 1087.9C1747.84 1085.62 1756.06 1084.48 1764.67 1084.48ZM1762.77 1105.74C1749.1 1105.74 1737.08 1109.16 1726.7 1115.99C1716.33 1122.57 1708.1 1131.69 1702.03 1143.33C1696.2 1154.72 1693.29 1168.01 1693.29 1183.19C1693.29 1198.12 1696.2 1211.54 1702.03 1223.43C1708.1 1235.33 1716.33 1244.69 1726.7 1251.53C1737.08 1258.11 1749.1 1261.4 1762.77 1261.4C1776.18 1261.4 1787.95 1258.11 1798.08 1251.53C1808.45 1244.69 1816.68 1235.33 1822.75 1223.43C1828.83 1211.54 1831.86 1198.12 1831.86 1183.19C1831.86 1168.26 1828.83 1154.97 1822.75 1143.33C1816.68 1131.69 1808.45 1122.57 1798.08 1115.99C1787.95 1109.16 1776.18 1105.74 1762.77 1105.74ZM2151.1 1082.59C2154.39 1082.59 2157.05 1083.72 2159.07 1086C2161.35 1088.28 2162.49 1090.94 2162.49 1093.97V1261.4C2162.49 1281.9 2158.44 1299.11 2150.34 1313.03C2142.24 1327.2 2131.36 1337.83 2117.69 1344.92C2104.02 1352.26 2088.46 1355.93 2070.99 1355.93C2060.11 1355.93 2049.99 1354.66 2040.62 1352.13C2031.51 1349.85 2024.05 1346.82 2018.22 1343.02C2015.19 1341.25 2012.91 1339.1 2011.39 1336.57C2009.87 1334.04 2009.75 1331.38 2011.01 1328.59C2012.28 1325.05 2014.17 1322.65 2016.71 1321.38C2019.49 1320.37 2022.27 1320.5 2025.06 1321.76C2029.36 1324.04 2035.56 1326.82 2043.66 1330.11C2051.76 1333.4 2061 1335.05 2071.37 1335.05C2085.29 1335.05 2097.32 1332.14 2107.44 1326.32C2117.82 1320.5 2125.79 1312.02 2131.36 1300.88C2136.93 1290 2139.71 1276.96 2139.71 1261.78V1234.44L2142.37 1243.55C2138.57 1251.4 2133.13 1258.36 2126.04 1264.43C2119.21 1270.51 2111.24 1275.32 2102.13 1278.86C2093.27 1282.15 2083.78 1283.8 2073.65 1283.8C2058.47 1283.8 2045.81 1280.76 2035.69 1274.68C2025.82 1268.36 2018.48 1259.75 2013.67 1248.87C2008.86 1237.99 2006.45 1225.2 2006.45 1210.53V1093.97C2006.45 1090.94 2007.47 1088.28 2009.49 1086C2011.52 1083.72 2014.3 1082.59 2017.84 1082.59C2021.13 1082.59 2023.79 1083.72 2025.82 1086C2028.09 1088.28 2029.23 1090.94 2029.23 1093.97V1207.11C2029.23 1224.83 2033.03 1238.49 2040.62 1248.11C2048.47 1257.73 2061.12 1262.54 2078.59 1262.54C2089.47 1262.54 2099.47 1260.01 2108.58 1254.94C2117.69 1249.63 2125.16 1242.79 2130.98 1234.44C2136.8 1225.84 2139.71 1216.73 2139.71 1207.11V1093.97C2139.71 1090.94 2140.72 1088.28 2142.75 1086C2145.03 1083.72 2147.81 1082.59 2151.1 1082.59ZM2401.09 1182.81C2401.09 1202.05 2396.91 1219.38 2388.56 1234.82C2380.21 1250.01 2368.82 1262.03 2354.39 1270.89C2339.96 1279.49 2323.51 1283.8 2305.04 1283.8C2287.07 1283.8 2270.74 1279.49 2256.06 1270.89C2241.64 1262.03 2230.12 1250.01 2221.51 1234.82C2213.16 1219.38 2208.99 1202.05 2208.99 1182.81C2208.99 1163.32 2213.16 1145.99 2221.51 1130.8C2230.12 1115.61 2241.64 1103.59 2256.06 1094.73C2270.74 1085.88 2287.07 1081.45 2305.04 1081.45C2323.51 1081.45 2339.96 1085.88 2354.39 1094.73C2368.82 1103.59 2380.21 1115.61 2388.56 1130.8C2396.91 1145.99 2401.09 1163.32 2401.09 1182.81ZM2378.31 1182.81C2378.31 1167.37 2375.14 1153.71 2368.82 1141.81C2362.49 1129.66 2353.76 1120.17 2342.62 1113.34C2331.74 1106.25 2319.21 1102.71 2305.04 1102.71C2291.37 1102.71 2278.97 1106.25 2267.83 1113.34C2256.69 1120.17 2247.84 1129.66 2241.26 1141.81C2234.93 1153.71 2231.76 1167.37 2231.76 1182.81C2231.76 1198.25 2234.93 1211.92 2241.26 1223.81C2247.84 1235.71 2256.69 1245.2 2267.83 1252.29C2278.97 1259.12 2291.37 1262.54 2305.04 1262.54C2319.21 1262.54 2331.74 1259.12 2342.62 1252.29C2353.76 1245.2 2362.49 1235.71 2368.82 1223.81C2375.14 1211.92 2378.31 1198.25 2378.31 1182.81ZM2594.52 1087.14C2597.81 1087.14 2600.47 1088.28 2602.49 1090.56C2604.77 1092.84 2605.91 1095.49 2605.91 1098.53V1205.59C2605.91 1230.65 2598.82 1249.76 2584.65 1262.92C2570.48 1276.08 2551.37 1282.66 2527.32 1282.66C2503.53 1282.66 2484.55 1276.08 2470.38 1262.92C2456.46 1249.76 2449.5 1230.65 2449.5 1205.59V1098.53C2449.5 1095.49 2450.51 1092.84 2452.53 1090.56C2454.81 1088.28 2457.6 1087.14 2460.89 1087.14C2464.18 1087.14 2466.83 1088.28 2468.86 1090.56C2471.14 1092.84 2472.28 1095.49 2472.28 1098.53V1205.59C2472.28 1223.81 2477.08 1237.73 2486.7 1247.35C2496.57 1256.72 2510.11 1261.4 2527.32 1261.4C2544.79 1261.4 2558.45 1256.72 2568.32 1247.35C2578.2 1237.73 2583.13 1223.81 2583.13 1205.59V1098.53C2583.13 1095.49 2584.14 1092.84 2586.17 1090.56C2588.19 1088.28 2590.98 1087.14 2594.52 1087.14ZM2677.03 1280C2673.49 1280 2670.7 1278.86 2668.68 1276.58C2666.65 1274.31 2665.64 1271.65 2665.64 1268.61V1098.53C2665.64 1095.49 2666.65 1092.84 2668.68 1090.56C2670.96 1088.28 2673.74 1087.14 2677.03 1087.14C2680.32 1087.14 2682.98 1088.28 2685 1090.56C2687.28 1092.84 2688.42 1095.49 2688.42 1098.53V1155.48L2682.73 1156.62C2683.48 1147.76 2685.64 1139.03 2689.18 1130.42C2692.98 1121.56 2698.04 1113.46 2704.36 1106.12C2710.69 1098.78 2718.16 1092.84 2726.76 1088.28C2735.62 1083.72 2745.49 1081.45 2756.38 1081.45C2760.93 1081.45 2765.36 1082.46 2769.66 1084.48C2773.97 1086.26 2776.12 1089.29 2776.12 1093.59C2776.12 1097.39 2775.11 1100.3 2773.08 1102.33C2771.06 1104.35 2768.65 1105.36 2765.87 1105.36C2763.59 1105.36 2761.06 1104.73 2758.27 1103.47C2755.74 1102.2 2752.33 1101.57 2748.02 1101.57C2740.94 1101.57 2733.85 1103.72 2726.76 1108.02C2719.68 1112.07 2713.22 1117.64 2707.4 1124.73C2701.58 1131.81 2696.9 1139.78 2693.36 1148.64C2690.07 1157.25 2688.42 1165.98 2688.42 1174.84V1268.61C2688.42 1271.65 2687.28 1274.31 2685 1276.58C2682.73 1278.86 2680.07 1280 2677.03 1280ZM2985.76 1000.58C2989.55 1000.58 2993.6 1000.96 2997.91 1001.72C3002.46 1002.48 3006.39 1003.87 3009.68 1005.9C3012.97 1007.67 3014.61 1010.45 3014.61 1014.25C3014.61 1017.03 3013.6 1019.56 3011.57 1021.84C3009.55 1023.87 3007.27 1024.88 3004.74 1024.88C3002.21 1024.88 2999.05 1024.25 2995.25 1022.98C2991.45 1021.46 2987.4 1020.7 2983.1 1020.7C2977.79 1020.7 2973.23 1021.97 2969.43 1024.5C2965.64 1026.78 2962.73 1030.19 2960.7 1034.75C2958.68 1039.05 2957.66 1044.37 2957.66 1050.7V1268.61C2957.66 1271.65 2956.53 1274.31 2954.25 1276.58C2952.22 1278.86 2949.57 1280 2946.28 1280C2942.98 1280 2940.2 1278.86 2937.92 1276.58C2935.9 1274.31 2934.89 1271.65 2934.89 1268.61V1050.7C2934.89 1034.5 2939.57 1022.1 2948.93 1013.49C2958.55 1004.88 2970.83 1000.58 2985.76 1000.58ZM3000.18 1089.8C3003.22 1089.8 3005.75 1090.81 3007.78 1092.84C3009.8 1094.86 3010.81 1097.39 3010.81 1100.43C3010.81 1103.47 3009.8 1106 3007.78 1108.02C3005.75 1110.05 3003.22 1111.06 3000.18 1111.06H2907.17C2904.39 1111.06 2901.86 1110.05 2899.58 1108.02C2897.55 1105.74 2896.54 1103.21 2896.54 1100.43C2896.54 1097.14 2897.55 1094.61 2899.58 1092.84C2901.86 1090.81 2904.39 1089.8 2907.17 1089.8H3000.18ZM3211.4 1086C3214.69 1086 3217.35 1087.14 3219.37 1089.42C3221.65 1091.7 3222.79 1094.48 3222.79 1097.77V1268.61C3222.79 1271.65 3221.65 1274.31 3219.37 1276.58C3217.09 1278.86 3214.44 1280 3211.4 1280C3208.11 1280 3205.33 1278.86 3203.05 1276.58C3201.02 1274.31 3200.01 1271.65 3200.01 1268.61V1223.43L3206.46 1220.4C3206.46 1227.48 3204.44 1234.7 3200.39 1242.04C3196.59 1249.38 3191.28 1256.21 3184.45 1262.54C3177.61 1268.86 3169.51 1274.05 3160.15 1278.1C3151.04 1281.9 3141.17 1283.8 3130.54 1283.8C3113.33 1283.8 3097.89 1279.37 3084.22 1270.51C3070.81 1261.65 3060.18 1249.5 3052.33 1234.06C3044.74 1218.62 3040.94 1201.29 3040.94 1182.05C3040.94 1162.31 3044.86 1144.97 3052.71 1130.04C3060.55 1114.85 3071.18 1102.96 3084.6 1094.35C3098.01 1085.75 3113.2 1081.45 3130.16 1081.45C3141.04 1081.45 3151.16 1083.34 3160.53 1087.14C3170.15 1090.94 3178.5 1096.13 3185.58 1102.71C3192.67 1109.29 3198.11 1116.88 3201.91 1125.48C3205.96 1133.84 3207.98 1142.57 3207.98 1151.68L3200.01 1145.99V1097.77C3200.01 1094.48 3201.02 1091.7 3203.05 1089.42C3205.33 1087.14 3208.11 1086 3211.4 1086ZM3132.43 1262.54C3145.85 1262.54 3157.74 1259.12 3168.12 1252.29C3178.5 1245.2 3186.6 1235.58 3192.42 1223.43C3198.49 1211.03 3201.53 1197.24 3201.53 1182.05C3201.53 1167.12 3198.49 1153.71 3192.42 1141.81C3186.6 1129.91 3178.5 1120.42 3168.12 1113.34C3157.74 1106.25 3145.85 1102.71 3132.43 1102.71C3119.27 1102.71 3107.38 1106.12 3096.75 1112.96C3086.37 1119.79 3078.15 1129.15 3072.07 1141.05C3066.25 1152.95 3063.34 1166.61 3063.34 1182.05C3063.34 1197.24 3066.25 1211.03 3072.07 1223.43C3078.15 1235.58 3086.37 1245.2 3096.75 1252.29C3107.12 1259.12 3119.02 1262.54 3132.43 1262.54ZM3273.56 1081.83C3275.58 1081.83 3277.61 1082.46 3279.63 1083.72C3281.66 1084.99 3283.18 1086.89 3284.19 1089.42L3350.63 1247.35L3345.69 1250.39L3413.65 1089.42C3415.67 1084.36 3419.34 1081.95 3424.66 1082.21C3427.19 1082.21 3429.59 1083.09 3431.87 1084.86C3434.15 1086.38 3435.29 1088.66 3435.29 1091.7C3435.29 1093.22 3435.03 1094.48 3434.53 1095.49C3434.27 1096.25 3434.02 1097.14 3433.77 1098.15L3359.36 1272.79C3357.33 1277.34 3353.92 1279.75 3349.11 1280C3346.83 1280.25 3344.55 1279.75 3342.27 1278.48C3340.25 1276.96 3338.73 1275.06 3337.72 1272.79L3262.93 1098.15C3262.67 1097.64 3262.42 1096.89 3262.17 1095.87C3261.92 1094.86 3261.79 1093.85 3261.79 1092.84C3261.79 1090.05 3262.8 1087.52 3264.83 1085.24C3266.85 1082.96 3269.76 1081.83 3273.56 1081.83ZM3657.91 1182.81C3657.91 1202.05 3653.74 1219.38 3645.39 1234.82C3637.03 1250.01 3625.64 1262.03 3611.22 1270.89C3596.79 1279.49 3580.34 1283.8 3561.86 1283.8C3543.89 1283.8 3527.57 1279.49 3512.89 1270.89C3498.46 1262.03 3486.95 1250.01 3478.34 1234.82C3469.99 1219.38 3465.81 1202.05 3465.81 1182.81C3465.81 1163.32 3469.99 1145.99 3478.34 1130.8C3486.95 1115.61 3498.46 1103.59 3512.89 1094.73C3527.57 1085.88 3543.89 1081.45 3561.86 1081.45C3580.34 1081.45 3596.79 1085.88 3611.22 1094.73C3625.64 1103.59 3637.03 1115.61 3645.39 1130.8C3653.74 1145.99 3657.91 1163.32 3657.91 1182.81ZM3635.14 1182.81C3635.14 1167.37 3631.97 1153.71 3625.64 1141.81C3619.32 1129.66 3610.59 1120.17 3599.45 1113.34C3588.57 1106.25 3576.04 1102.71 3561.86 1102.71C3548.2 1102.71 3535.8 1106.25 3524.66 1113.34C3513.52 1120.17 3504.66 1129.66 3498.08 1141.81C3491.76 1153.71 3488.59 1167.37 3488.59 1182.81C3488.59 1198.25 3491.76 1211.92 3498.08 1223.81C3504.66 1235.71 3513.52 1245.2 3524.66 1252.29C3535.8 1259.12 3548.2 1262.54 3561.86 1262.54C3576.04 1262.54 3588.57 1259.12 3599.45 1252.29C3610.59 1245.2 3619.32 1235.71 3625.64 1223.81C3631.97 1211.92 3635.14 1198.25 3635.14 1182.81ZM3851.35 1087.14C3854.64 1087.14 3857.3 1088.28 3859.32 1090.56C3861.6 1092.84 3862.74 1095.49 3862.74 1098.53V1205.59C3862.74 1230.65 3855.65 1249.76 3841.48 1262.92C3827.3 1276.08 3808.2 1282.66 3784.15 1282.66C3760.36 1282.66 3741.38 1276.08 3727.21 1262.92C3713.29 1249.76 3706.33 1230.65 3706.33 1205.59V1098.53C3706.33 1095.49 3707.34 1092.84 3709.36 1090.56C3711.64 1088.28 3714.42 1087.14 3717.71 1087.14C3721 1087.14 3723.66 1088.28 3725.69 1090.56C3727.96 1092.84 3729.1 1095.49 3729.1 1098.53V1205.59C3729.1 1223.81 3733.91 1237.73 3743.53 1247.35C3753.4 1256.72 3766.94 1261.4 3784.15 1261.4C3801.62 1261.4 3815.28 1256.72 3825.15 1247.35C3835.02 1237.73 3839.96 1223.81 3839.96 1205.59V1098.53C3839.96 1095.49 3840.97 1092.84 3843 1090.56C3845.02 1088.28 3847.81 1087.14 3851.35 1087.14ZM3933.86 1280C3930.32 1280 3927.53 1278.86 3925.51 1276.58C3923.48 1274.31 3922.47 1271.65 3922.47 1268.61V1098.53C3922.47 1095.49 3923.48 1092.84 3925.51 1090.56C3927.78 1088.28 3930.57 1087.14 3933.86 1087.14C3937.15 1087.14 3939.81 1088.28 3941.83 1090.56C3944.11 1092.84 3945.25 1095.49 3945.25 1098.53V1155.48L3939.55 1156.62C3940.31 1147.76 3942.46 1139.03 3946.01 1130.42C3949.8 1121.56 3954.87 1113.46 3961.19 1106.12C3967.52 1098.78 3974.99 1092.84 3983.59 1088.28C3992.45 1083.72 4002.32 1081.45 4013.2 1081.45C4017.76 1081.45 4022.19 1082.46 4026.49 1084.48C4030.79 1086.26 4032.95 1089.29 4032.95 1093.59C4032.95 1097.39 4031.93 1100.3 4029.91 1102.33C4027.88 1104.35 4025.48 1105.36 4022.7 1105.36C4020.42 1105.36 4017.89 1104.73 4015.1 1103.47C4012.57 1102.2 4009.16 1101.57 4004.85 1101.57C3997.77 1101.57 3990.68 1103.72 3983.59 1108.02C3976.51 1112.07 3970.05 1117.64 3964.23 1124.73C3958.41 1131.81 3953.73 1139.78 3950.18 1148.64C3946.89 1157.25 3945.25 1165.98 3945.25 1174.84V1268.61C3945.25 1271.65 3944.11 1274.31 3941.83 1276.58C3939.55 1278.86 3936.9 1280 3933.86 1280ZM4090.56 1268.61C4090.56 1271.65 4089.42 1274.31 4087.15 1276.58C4084.87 1278.86 4082.21 1280 4079.17 1280C4075.88 1280 4073.1 1278.86 4070.82 1276.58C4068.8 1274.31 4067.78 1271.65 4067.78 1268.61V1093.97C4067.78 1090.94 4068.8 1088.28 4070.82 1086C4073.1 1083.72 4075.88 1082.59 4079.17 1082.59C4082.46 1082.59 4085.12 1083.72 4087.15 1086C4089.42 1088.28 4090.56 1090.94 4090.56 1093.97V1268.61ZM4079.17 1057.15C4073.86 1057.15 4069.81 1056.01 4067.03 1053.73C4064.49 1051.2 4063.23 1047.66 4063.23 1043.1V1039.31C4063.23 1034.75 4064.62 1031.33 4067.4 1029.06C4070.44 1026.52 4074.49 1025.26 4079.55 1025.26C4084.36 1025.26 4088.03 1026.52 4090.56 1029.06C4093.35 1031.33 4094.74 1034.75 4094.74 1039.31V1043.1C4094.74 1047.66 4093.35 1051.2 4090.56 1053.73C4088.03 1056.01 4084.24 1057.15 4079.17 1057.15ZM4137.21 1086.76H4225.67C4228.7 1086.76 4231.23 1087.9 4233.26 1090.18C4235.28 1092.2 4236.3 1094.73 4236.3 1097.77C4236.3 1100.56 4235.28 1102.96 4233.26 1104.98C4231.23 1107.01 4228.7 1108.02 4225.67 1108.02H4137.21C4134.17 1108.02 4131.51 1107.01 4129.24 1104.98C4127.21 1102.71 4126.2 1100.18 4126.2 1097.39C4126.2 1094.35 4127.21 1091.82 4129.24 1089.8C4131.51 1087.77 4134.17 1086.76 4137.21 1086.76ZM4176.31 1033.23C4179.6 1033.23 4182.26 1034.37 4184.28 1036.65C4186.56 1038.93 4187.7 1041.58 4187.7 1044.62V1235.2C4187.7 1242.29 4188.59 1247.6 4190.36 1251.15C4192.38 1254.69 4194.91 1257.09 4197.95 1258.36C4200.99 1259.37 4204.03 1259.88 4207.06 1259.88C4209.09 1259.88 4210.86 1259.63 4212.38 1259.12C4214.15 1258.36 4216.05 1257.98 4218.07 1257.98C4220.35 1257.98 4222.25 1258.87 4223.77 1260.64C4225.54 1262.41 4226.43 1264.69 4226.43 1267.47C4226.43 1271.02 4224.4 1274.05 4220.35 1276.58C4216.3 1278.86 4211.49 1280 4205.92 1280C4203.65 1280 4200.23 1279.87 4195.67 1279.62C4191.12 1279.11 4186.44 1277.72 4181.63 1275.44C4176.82 1272.91 4172.77 1268.61 4169.48 1262.54C4166.44 1256.46 4164.92 1247.73 4164.92 1236.34V1044.62C4164.92 1041.58 4165.94 1038.93 4167.96 1036.65C4170.24 1034.37 4173.02 1033.23 4176.31 1033.23ZM4364.23 1283.8C4344.74 1283.8 4327.53 1279.62 4312.6 1271.27C4297.67 1262.92 4286.02 1251.27 4277.67 1236.34C4269.32 1221.41 4265.14 1203.94 4265.14 1183.95C4265.14 1162.44 4269.32 1144.09 4277.67 1128.9C4286.28 1113.72 4297.29 1102.07 4310.7 1093.97C4324.37 1085.62 4338.79 1081.45 4353.98 1081.45C4365.12 1081.45 4375.87 1083.47 4386.25 1087.52C4396.88 1091.32 4406.24 1097.14 4414.34 1104.98C4422.7 1112.58 4429.28 1121.94 4434.08 1133.08C4439.15 1144.21 4441.93 1157.12 4442.44 1171.8C4442.18 1174.84 4440.92 1177.5 4438.64 1179.77C4436.36 1181.8 4433.7 1182.81 4430.67 1182.81H4278.43L4273.87 1162.31H4423.45L4418.52 1166.87V1159.27C4417.51 1147.38 4413.71 1137.25 4407.13 1128.9C4400.55 1120.55 4392.58 1114.22 4383.21 1109.92C4373.85 1105.62 4364.1 1103.47 4353.98 1103.47C4346.39 1103.47 4338.54 1104.98 4330.44 1108.02C4322.6 1111.06 4315.38 1115.87 4308.8 1122.45C4302.47 1128.78 4297.29 1137 4293.24 1147.12C4289.19 1157 4287.16 1168.76 4287.16 1182.43C4287.16 1197.36 4290.2 1210.9 4296.27 1223.05C4302.35 1235.2 4311.08 1244.82 4322.47 1251.91C4334.11 1258.99 4347.91 1262.54 4363.85 1262.54C4372.71 1262.54 4380.68 1261.27 4387.77 1258.74C4394.85 1256.21 4401.06 1252.92 4406.37 1248.87C4411.69 1244.57 4416.11 1240.14 4419.66 1235.58C4422.44 1233.3 4425.23 1232.16 4428.01 1232.16C4430.54 1232.16 4432.69 1233.18 4434.46 1235.2C4436.49 1237.23 4437.5 1239.5 4437.5 1242.04C4437.5 1245.07 4436.24 1247.73 4433.7 1250.01C4426.11 1259.12 4416.24 1267.09 4404.09 1273.93C4391.94 1280.51 4378.66 1283.8 4364.23 1283.8ZM4583.99 1249.25C4581.97 1246.21 4580.96 1243.3 4580.96 1240.52C4581.21 1237.48 4582.85 1235.08 4585.89 1233.3C4587.92 1231.53 4590.19 1230.77 4592.73 1231.03C4595.51 1231.28 4598.04 1232.54 4600.32 1234.82C4607.15 1243.68 4615.38 1250.89 4624.99 1256.46C4634.87 1261.78 4646.51 1264.43 4659.92 1264.43C4667.01 1264.43 4673.97 1263.3 4680.8 1261.02C4687.89 1258.49 4693.71 1254.82 4698.27 1250.01C4702.82 1244.95 4705.1 1238.62 4705.1 1231.03C4705.1 1223.18 4702.82 1216.85 4698.27 1212.04C4693.71 1207.23 4687.76 1203.44 4680.42 1200.65C4673.34 1197.87 4665.74 1195.47 4657.64 1193.44C4649.04 1191.16 4640.69 1188.63 4632.59 1185.85C4624.49 1182.81 4617.28 1179.14 4610.95 1174.84C4604.87 1170.28 4599.94 1164.84 4596.14 1158.51C4592.35 1152.19 4590.45 1144.47 4590.45 1135.36C4590.45 1124.73 4593.36 1115.36 4599.18 1107.26C4605 1099.16 4612.85 1092.84 4622.72 1088.28C4632.84 1083.72 4644.23 1081.45 4656.89 1081.45C4663.21 1081.45 4670.05 1082.33 4677.39 1084.1C4684.73 1085.62 4691.94 1088.28 4699.03 1092.08C4706.11 1095.87 4712.44 1101.06 4718.01 1107.64C4720.29 1109.92 4721.42 1112.58 4721.42 1115.61C4721.42 1118.4 4720.16 1120.93 4717.63 1123.21C4715.6 1124.73 4713.2 1125.48 4710.41 1125.48C4707.88 1125.48 4705.73 1124.47 4703.96 1122.45C4697.89 1115.61 4690.67 1110.43 4682.32 1106.88C4673.97 1103.34 4664.98 1101.57 4655.37 1101.57C4648.03 1101.57 4641.07 1102.83 4634.49 1105.36C4628.16 1107.64 4622.84 1111.19 4618.54 1115.99C4614.24 1120.8 4612.09 1127.13 4612.09 1134.98C4612.59 1142.32 4615.12 1148.26 4619.68 1152.82C4624.49 1157.38 4630.69 1161.17 4638.28 1164.21C4646.13 1167.25 4654.86 1170.03 4664.48 1172.56C4672.58 1174.59 4680.3 1176.99 4687.64 1179.77C4695.23 1182.56 4701.81 1186.1 4707.38 1190.4C4713.2 1194.45 4717.75 1199.64 4721.04 1205.97C4724.59 1212.3 4726.36 1220.27 4726.36 1229.89C4726.36 1241.02 4723.2 1250.64 4716.87 1258.74C4710.79 1266.84 4702.57 1273.04 4692.19 1277.34C4681.81 1281.65 4670.3 1283.8 4657.64 1283.8C4643.98 1283.8 4630.69 1281.14 4617.78 1275.82C4605.13 1270.51 4593.86 1261.65 4583.99 1249.25ZM4953.67 1182.81C4953.67 1202.05 4949.5 1219.38 4941.14 1234.82C4932.79 1250.01 4921.4 1262.03 4906.98 1270.89C4892.55 1279.49 4876.1 1283.8 4857.62 1283.8C4839.65 1283.8 4823.33 1279.49 4808.65 1270.89C4794.22 1262.03 4782.71 1250.01 4774.1 1234.82C4765.75 1219.38 4761.57 1202.05 4761.57 1182.81C4761.57 1163.32 4765.75 1145.99 4774.1 1130.8C4782.71 1115.61 4794.22 1103.59 4808.65 1094.73C4823.33 1085.88 4839.65 1081.45 4857.62 1081.45C4876.1 1081.45 4892.55 1085.88 4906.98 1094.73C4921.4 1103.59 4932.79 1115.61 4941.14 1130.8C4949.5 1145.99 4953.67 1163.32 4953.67 1182.81ZM4930.89 1182.81C4930.89 1167.37 4927.73 1153.71 4921.4 1141.81C4915.07 1129.66 4906.34 1120.17 4895.21 1113.34C4884.32 1106.25 4871.8 1102.71 4857.62 1102.71C4843.95 1102.71 4831.55 1106.25 4820.42 1113.34C4809.28 1120.17 4800.42 1129.66 4793.84 1141.81C4787.51 1153.71 4784.35 1167.37 4784.35 1182.81C4784.35 1198.25 4787.51 1211.92 4793.84 1223.81C4800.42 1235.71 4809.28 1245.2 4820.42 1252.29C4831.55 1259.12 4843.95 1262.54 4857.62 1262.54C4871.8 1262.54 4884.32 1259.12 4895.21 1252.29C4906.34 1245.2 4915.07 1235.71 4921.4 1223.81C4927.73 1211.92 4930.89 1198.25 4930.89 1182.81ZM5093.58 1081.45C5110.28 1081.45 5123.57 1084.86 5133.44 1091.7C5143.56 1098.28 5150.78 1107.39 5155.08 1119.03C5159.63 1130.42 5161.91 1143.08 5161.91 1157V1268.61C5161.91 1271.65 5160.77 1274.31 5158.5 1276.58C5156.22 1278.86 5153.56 1280 5150.52 1280C5146.98 1280 5144.2 1278.86 5142.17 1276.58C5140.15 1274.31 5139.13 1271.65 5139.13 1268.61V1158.13C5139.13 1148.01 5137.49 1138.77 5134.2 1130.42C5130.91 1122.07 5125.47 1115.36 5117.87 1110.3C5110.53 1105.24 5100.79 1102.71 5088.64 1102.71C5077.76 1102.71 5067.38 1105.24 5057.51 1110.3C5047.89 1115.36 5040.05 1122.07 5033.97 1130.42C5027.9 1138.77 5024.86 1148.01 5024.86 1158.13V1268.61C5024.86 1271.65 5023.72 1274.31 5021.44 1276.58C5019.17 1278.86 5016.51 1280 5013.47 1280C5009.93 1280 5007.14 1278.86 5005.12 1276.58C5003.09 1274.31 5002.08 1271.65 5002.08 1268.61V1098.53C5002.08 1095.49 5003.09 1092.84 5005.12 1090.56C5007.4 1088.28 5010.18 1087.14 5013.47 1087.14C5016.76 1087.14 5019.42 1088.28 5021.44 1090.56C5023.72 1092.84 5024.86 1095.49 5024.86 1098.53V1130.42L5016.13 1144.09C5016.64 1135.99 5019.17 1128.27 5023.72 1120.93C5028.53 1113.34 5034.61 1106.63 5041.94 1100.81C5049.28 1094.73 5057.38 1090.05 5066.24 1086.76C5075.35 1083.22 5084.46 1081.45 5093.58 1081.45ZM5302.43 1081.45C5313.82 1081.45 5324.32 1083.47 5333.94 1087.52C5343.56 1091.32 5351.91 1096.38 5358.99 1102.71C5366.33 1108.78 5372.03 1115.36 5376.08 1122.45C5380.13 1129.28 5382.15 1135.86 5382.15 1142.19L5375.7 1133.08V1097.77C5375.7 1094.48 5376.71 1091.7 5378.74 1089.42C5381.01 1087.14 5383.8 1086 5387.09 1086C5390.63 1086 5393.42 1087.14 5395.44 1089.42C5397.47 1091.7 5398.48 1094.48 5398.48 1097.77V1262.16C5398.48 1282.4 5394.3 1299.49 5385.95 1313.41C5377.6 1327.33 5366.21 1337.83 5351.78 1344.92C5337.61 1352.26 5321.41 1355.93 5303.19 1355.93C5294.33 1355.93 5284.96 1354.79 5275.09 1352.51C5265.48 1350.23 5257.12 1347.32 5250.04 1343.78C5243.2 1340.24 5239.41 1336.57 5238.65 1332.77C5236.62 1330.49 5235.61 1328.21 5235.61 1325.94C5235.86 1323.91 5237 1322.14 5239.03 1320.62C5241.56 1318.85 5244.22 1318.6 5247 1319.86C5249.78 1321.38 5253.96 1323.28 5259.53 1325.56C5262.06 1326.32 5265.48 1327.46 5269.78 1328.97C5274.08 1330.49 5279.14 1331.76 5284.96 1332.77C5291.04 1334.04 5297.37 1334.67 5303.95 1334.67C5326.72 1334.67 5344.32 1328.09 5356.72 1314.93C5369.37 1302.02 5375.7 1284.94 5375.7 1263.68V1227.23L5379.88 1228.37C5377.6 1237.48 5373.8 1245.45 5368.49 1252.29C5363.42 1259.12 5357.35 1264.94 5350.26 1269.75C5343.18 1274.31 5335.46 1277.72 5327.1 1280C5319.01 1282.53 5310.91 1283.8 5302.81 1283.8C5285.34 1283.8 5269.65 1279.37 5255.73 1270.51C5241.81 1261.65 5230.68 1249.63 5222.32 1234.44C5214.22 1219.26 5210.17 1201.92 5210.17 1182.43C5210.17 1163.2 5214.22 1145.99 5222.32 1130.8C5230.68 1115.36 5241.68 1103.34 5255.35 1094.73C5269.27 1085.88 5284.96 1081.45 5302.43 1081.45ZM5305.09 1102.71C5291.17 1102.71 5278.64 1106.25 5267.5 1113.34C5256.62 1120.17 5248.01 1129.66 5241.68 1141.81C5235.61 1153.71 5232.57 1167.25 5232.57 1182.43C5232.57 1197.62 5235.61 1211.28 5241.68 1223.43C5248.01 1235.58 5256.62 1245.2 5267.5 1252.29C5278.64 1259.12 5291.17 1262.54 5305.09 1262.54C5319.01 1262.54 5331.41 1259.12 5342.29 1252.29C5353.17 1245.45 5361.78 1236.09 5368.11 1224.19C5374.43 1212.04 5377.6 1198.12 5377.6 1182.43C5377.6 1166.74 5374.43 1152.95 5368.11 1141.05C5361.78 1128.9 5353.17 1119.54 5342.29 1112.96C5331.41 1106.12 5319.01 1102.71 5305.09 1102.71ZM5587.34 1268.61C5587.34 1271.65 5586.2 1274.31 5583.92 1276.58C5581.64 1278.86 5578.98 1280 5575.95 1280C5572.66 1280 5569.87 1278.86 5567.59 1276.58C5565.57 1274.31 5564.56 1271.65 5564.56 1268.61V1010.45C5564.56 1007.42 5565.7 1004.76 5567.97 1002.48C5570.25 1000.2 5572.91 999.064 5575.95 999.064C5579.24 999.064 5581.89 1000.2 5583.92 1002.48C5586.2 1004.76 5587.34 1007.42 5587.34 1010.45V1268.61ZM5788.86 1082.59C5792.15 1082.59 5794.81 1083.72 5796.83 1086C5799.11 1088.28 5800.25 1090.94 5800.25 1093.97V1261.4C5800.25 1281.9 5796.2 1299.11 5788.1 1313.03C5780 1327.2 5769.12 1337.83 5755.45 1344.92C5741.78 1352.26 5726.22 1355.93 5708.75 1355.93C5697.87 1355.93 5687.75 1354.66 5678.38 1352.13C5669.27 1349.85 5661.8 1346.82 5655.98 1343.02C5652.95 1341.25 5650.67 1339.1 5649.15 1336.57C5647.63 1334.04 5647.5 1331.38 5648.77 1328.59C5650.04 1325.05 5651.93 1322.65 5654.46 1321.38C5657.25 1320.37 5660.03 1320.5 5662.82 1321.76C5667.12 1324.04 5673.32 1326.82 5681.42 1330.11C5689.52 1333.4 5698.76 1335.05 5709.13 1335.05C5723.05 1335.05 5735.08 1332.14 5745.2 1326.32C5755.58 1320.5 5763.55 1312.02 5769.12 1300.88C5774.68 1290 5777.47 1276.96 5777.47 1261.78V1234.44L5780.13 1243.55C5776.33 1251.4 5770.89 1258.36 5763.8 1264.43C5756.97 1270.51 5749 1275.32 5739.88 1278.86C5731.03 1282.15 5721.53 1283.8 5711.41 1283.8C5696.23 1283.8 5683.57 1280.76 5673.45 1274.68C5663.58 1268.36 5656.24 1259.75 5651.43 1248.87C5646.62 1237.99 5644.21 1225.2 5644.21 1210.53V1093.97C5644.21 1090.94 5645.23 1088.28 5647.25 1086C5649.28 1083.72 5652.06 1082.59 5655.6 1082.59C5658.89 1082.59 5661.55 1083.72 5663.58 1086C5665.85 1088.28 5666.99 1090.94 5666.99 1093.97V1207.11C5666.99 1224.83 5670.79 1238.49 5678.38 1248.11C5686.23 1257.73 5698.88 1262.54 5716.35 1262.54C5727.23 1262.54 5737.23 1260.01 5746.34 1254.94C5755.45 1249.63 5762.92 1242.79 5768.74 1234.44C5774.56 1225.84 5777.47 1216.73 5777.47 1207.11V1093.97C5777.47 1090.94 5778.48 1088.28 5780.51 1086C5782.78 1083.72 5785.57 1082.59 5788.86 1082.59ZM5871.38 1280C5867.83 1280 5865.05 1278.86 5863.03 1276.58C5861 1274.31 5859.99 1271.65 5859.99 1268.61V1098.53C5859.99 1095.49 5861 1092.84 5863.03 1090.56C5865.3 1088.28 5868.09 1087.14 5871.38 1087.14C5874.67 1087.14 5877.33 1088.28 5879.35 1090.56C5881.63 1092.84 5882.77 1095.49 5882.77 1098.53V1155.48L5877.07 1156.62C5877.83 1147.76 5879.98 1139.03 5883.53 1130.42C5887.32 1121.56 5892.38 1113.46 5898.71 1106.12C5905.04 1098.78 5912.51 1092.84 5921.11 1088.28C5929.97 1083.72 5939.84 1081.45 5950.72 1081.45C5955.28 1081.45 5959.71 1082.46 5964.01 1084.48C5968.31 1086.26 5970.46 1089.29 5970.46 1093.59C5970.46 1097.39 5969.45 1100.3 5967.43 1102.33C5965.4 1104.35 5963 1105.36 5960.21 1105.36C5957.94 1105.36 5955.41 1104.73 5952.62 1103.47C5950.09 1102.2 5946.67 1101.57 5942.37 1101.57C5935.28 1101.57 5928.2 1103.72 5921.11 1108.02C5914.02 1112.07 5907.57 1117.64 5901.75 1124.73C5895.93 1131.81 5891.25 1139.78 5887.7 1148.64C5884.41 1157.25 5882.77 1165.98 5882.77 1174.84V1268.61C5882.77 1271.65 5881.63 1274.31 5879.35 1276.58C5877.07 1278.86 5874.41 1280 5871.38 1280ZM6028.08 1268.61C6028.08 1271.65 6026.94 1274.31 6024.66 1276.58C6022.39 1278.86 6019.73 1280 6016.69 1280C6013.4 1280 6010.62 1278.86 6008.34 1276.58C6006.32 1274.31 6005.3 1271.65 6005.3 1268.61V1093.97C6005.3 1090.94 6006.32 1088.28 6008.34 1086C6010.62 1083.72 6013.4 1082.59 6016.69 1082.59C6019.98 1082.59 6022.64 1083.72 6024.66 1086C6026.94 1088.28 6028.08 1090.94 6028.08 1093.97V1268.61ZM6016.69 1057.15C6011.38 1057.15 6007.33 1056.01 6004.54 1053.73C6002.01 1051.2 6000.75 1047.66 6000.75 1043.1V1039.31C6000.75 1034.75 6002.14 1031.33 6004.92 1029.06C6007.96 1026.52 6012.01 1025.26 6017.07 1025.26C6021.88 1025.26 6025.55 1026.52 6028.08 1029.06C6030.87 1031.33 6032.26 1034.75 6032.26 1039.31V1043.1C6032.26 1047.66 6030.87 1051.2 6028.08 1053.73C6025.55 1056.01 6021.75 1057.15 6016.69 1057.15ZM6172.68 1081.45C6184.82 1081.45 6195.96 1082.84 6206.08 1085.62C6216.21 1088.15 6224.31 1091.7 6230.38 1096.25C6236.71 1100.81 6239.87 1105.74 6239.87 1111.06C6239.87 1113.59 6238.99 1116.12 6237.21 1118.65C6235.44 1120.93 6233.04 1122.07 6230 1122.07C6226.96 1122.07 6224.43 1121.31 6222.41 1119.79C6220.64 1118.27 6218.74 1116.5 6216.71 1114.48C6214.94 1112.45 6212.28 1110.55 6208.74 1108.78C6205.45 1107.26 6200.77 1105.87 6194.69 1104.6C6188.62 1103.34 6181.66 1102.71 6173.81 1102.71C6159.64 1102.71 6146.86 1106.25 6135.47 1113.34C6124.08 1120.42 6115.1 1130.04 6108.52 1142.19C6101.94 1154.08 6098.64 1167.5 6098.64 1182.43C6098.64 1197.62 6101.81 1211.28 6108.14 1223.43C6114.46 1235.58 6123.2 1245.2 6134.33 1252.29C6145.47 1259.12 6158.5 1262.54 6173.43 1262.54C6183.56 1262.54 6191.4 1261.65 6196.97 1259.88C6202.54 1258.11 6207.35 1256.08 6211.4 1253.8C6216.21 1251.02 6219.62 1248.36 6221.65 1245.83C6223.93 1243.05 6226.84 1241.66 6230.38 1241.66C6233.67 1241.66 6236.08 1242.67 6237.59 1244.69C6239.37 1246.46 6240.25 1248.87 6240.25 1251.91C6240.25 1255.96 6237.21 1260.51 6231.14 1265.57C6225.32 1270.38 6217.22 1274.68 6206.84 1278.48C6196.47 1282.02 6184.57 1283.8 6171.16 1283.8C6152.17 1283.8 6135.47 1279.37 6121.04 1270.51C6106.87 1261.65 6095.73 1249.63 6087.64 1234.44C6079.79 1219 6075.87 1201.67 6075.87 1182.43C6075.87 1163.96 6079.92 1147.12 6088.01 1131.94C6096.11 1116.75 6107.38 1104.6 6121.8 1095.49C6136.48 1086.13 6153.44 1081.45 6172.68 1081.45ZM6272.74 1249.25C6270.72 1246.21 6269.7 1243.3 6269.7 1240.52C6269.96 1237.48 6271.6 1235.08 6274.64 1233.3C6276.66 1231.53 6278.94 1230.77 6281.47 1231.03C6284.26 1231.28 6286.79 1232.54 6289.07 1234.82C6295.9 1243.68 6304.12 1250.89 6313.74 1256.46C6323.61 1261.78 6335.26 1264.43 6348.67 1264.43C6355.76 1264.43 6362.72 1263.3 6369.55 1261.02C6376.64 1258.49 6382.46 1254.82 6387.01 1250.01C6391.57 1244.95 6393.85 1238.62 6393.85 1231.03C6393.85 1223.18 6391.57 1216.85 6387.01 1212.04C6382.46 1207.23 6376.51 1203.44 6369.17 1200.65C6362.08 1197.87 6354.49 1195.47 6346.39 1193.44C6337.79 1191.16 6329.43 1188.63 6321.34 1185.85C6313.24 1182.81 6306.02 1179.14 6299.7 1174.84C6293.62 1170.28 6288.69 1164.84 6284.89 1158.51C6281.09 1152.19 6279.19 1144.47 6279.19 1135.36C6279.19 1124.73 6282.11 1115.36 6287.93 1107.26C6293.75 1099.16 6301.59 1092.84 6311.46 1088.28C6321.59 1083.72 6332.98 1081.45 6345.63 1081.45C6351.96 1081.45 6358.79 1082.33 6366.13 1084.1C6373.47 1085.62 6380.69 1088.28 6387.77 1092.08C6394.86 1095.87 6401.19 1101.06 6406.76 1107.64C6409.03 1109.92 6410.17 1112.58 6410.17 1115.61C6410.17 1118.4 6408.91 1120.93 6406.38 1123.21C6404.35 1124.73 6401.95 1125.48 6399.16 1125.48C6396.63 1125.48 6394.48 1124.47 6392.71 1122.45C6386.63 1115.61 6379.42 1110.43 6371.07 1106.88C6362.72 1103.34 6353.73 1101.57 6344.11 1101.57C6336.77 1101.57 6329.81 1102.83 6323.23 1105.36C6316.91 1107.64 6311.59 1111.19 6307.29 1115.99C6302.99 1120.8 6300.83 1127.13 6300.83 1134.98C6301.34 1142.32 6303.87 1148.26 6308.43 1152.82C6313.24 1157.38 6319.44 1161.17 6327.03 1164.21C6334.88 1167.25 6343.61 1170.03 6353.23 1172.56C6361.32 1174.59 6369.04 1176.99 6376.38 1179.77C6383.98 1182.56 6390.56 1186.1 6396.13 1190.4C6401.95 1194.45 6406.5 1199.64 6409.79 1205.97C6413.34 1212.3 6415.11 1220.27 6415.11 1229.89C6415.11 1241.02 6411.94 1250.64 6405.62 1258.74C6399.54 1266.84 6391.32 1273.04 6380.94 1277.34C6370.56 1281.65 6359.05 1283.8 6346.39 1283.8C6332.72 1283.8 6319.44 1281.14 6306.53 1275.82C6293.87 1270.51 6282.61 1261.65 6272.74 1249.25ZM6464.75 1280C6460.44 1280 6457.15 1278.61 6454.88 1275.82C6452.6 1273.04 6451.46 1269.5 6451.46 1265.19V1257.22C6451.46 1252.67 6452.6 1249.12 6454.88 1246.59C6457.15 1244.06 6460.44 1242.79 6464.75 1242.79H6467.4C6471.71 1242.79 6475 1244.06 6477.27 1246.59C6479.55 1249.12 6480.69 1252.67 6480.69 1257.22V1265.19C6480.69 1269.5 6479.55 1273.04 6477.27 1275.82C6475 1278.61 6471.71 1280 6467.4 1280H6464.75Z" fill="#FF6347"/>
</svg>
